<svg xmlns="http://www.w3.org/2000/svg" width="600" height="900" viewBox="0 0 600 900">
  <defs>
    <linearGradient id="s1bg" x1="0" y1="0" x2="0" y2="1">
      <stop offset="0" stop-color="#0a0a0d"/>
      <stop offset="1" stop-color="#050507"/>
    </linearGradient>
    <radialGradient id="s1glow" cx="0.5" cy="0.34" r="0.6">
      <stop offset="0" stop-color="rgba(226,229,240,0.07)"/>
      <stop offset="1" stop-color="rgba(226,229,240,0)"/>
    </radialGradient>
    <radialGradient id="s1vig" cx="0.5" cy="0.5" r="0.8">
      <stop offset=".5" stop-color="rgba(0,0,0,0)"/>
      <stop offset="1" stop-color="rgba(0,0,0,0.8)"/>
    </radialGradient>
    <filter id="s1g">
      <feTurbulence type="fractalNoise" baseFrequency="0.8" numOctaves="2" stitchTiles="stitch"/>
      <feColorMatrix type="matrix" values="0 0 0 0 1  0 0 0 0 1  0 0 0 0 1  0 0 0 0.05 0"/>
    </filter>
    <filter id="s1soft"><feGaussianBlur stdDeviation="18"/></filter>
  </defs>
  <rect width="600" height="900" fill="url(#s1bg)"/>
  <rect width="600" height="900" fill="url(#s1glow)"/>
  <!-- un voile qui monte, illisible à dessein -->
  <g filter="url(#s1soft)" fill="rgba(216,219,232,0.06)">
    <path d="M180 760 q40 -180 10 -320 q-24 -120 60 -190 q70 -58 30 -160 l60 0 q60 130 -10 220 q-58 76 -30 210 q24 118 -20 240 z"/>
  </g>
  <g stroke="rgba(224,227,238,0.10)" stroke-width="2" fill="none">
    <path d="M338 700 q-30 -150 12 -262"/>
    <path d="M262 720 q-22 -120 6 -230"/>
  </g>
  <rect width="600" height="900" fill="url(#s1vig)"/>
  <rect width="600" height="900" filter="url(#s1g)" opacity=".55"/>
</svg>
