<svg xmlns="http://www.w3.org/2000/svg" width="1280" height="720" viewBox="0 0 1280 720">
  <defs>
    <linearGradient id="base" x1="0" y1="0" x2="0.25" y2="1">
      <stop offset="0" stop-color="rgb(12,16,23)"/>
      <stop offset="1" stop-color="rgb(6,6,8)"/>
    </linearGradient>
    <radialGradient id="glowA" cx="0.66" cy="0.31" r="0.87">
      <stop offset="0" stop-color="rgba(58,123,213,0.3)"/>
      <stop offset="0.42" stop-color="rgba(58,123,213,0.1)"/>
      <stop offset="1" stop-color="rgba(58,123,213,0)"/>
    </radialGradient>
    <radialGradient id="glowB" cx="0.87" cy="0.63" r="0.49">
      <stop offset="0" stop-color="rgba(117,163,226,0.1)"/>
      <stop offset="1" stop-color="rgba(58,123,213,0)"/>
    </radialGradient>
    <radialGradient id="vig" cx="0.5" cy="0.46" r="0.75">
      <stop offset="0.45" stop-color="rgba(0,0,0,0)"/>
      <stop offset="1" stop-color="rgba(0,0,0,0.62)"/>
    </radialGradient>
    <linearGradient id="scrim" x1="0" y1="0" x2="0" y2="1">
      <stop offset="0.5" stop-color="rgba(7,7,8,0)"/>
      <stop offset="1" stop-color="rgba(7,7,8,0.78)"/>
    </linearGradient>
    <linearGradient id="mono" x1="0" y1="0" x2="0" y2="1">
      <stop offset="0" stop-color="rgba(58,123,213,0)"/>
      <stop offset="0.5" stop-color="rgba(58,123,213,0.5)"/>
      <stop offset="1" stop-color="rgba(58,123,213,0)"/>
    </linearGradient>
    <linearGradient id="floor" x1="0" y1="0" x2="0" y2="1">
      <stop offset="0" stop-color="rgba(58,123,213,0.06)"/>
      <stop offset="1" stop-color="rgba(0,0,0,0)"/>
    </linearGradient>
    <filter id="grain"><feTurbulence type="fractalNoise" baseFrequency="0.9" numOctaves="2" stitchTiles="stitch"/><feColorMatrix type="saturate" values="0"/></filter>
  </defs>
  <rect width="1280" height="720" fill="url(#base)"/>
  <rect width="1280" height="720" fill="url(#glowB)"/>
  <g transform="rotate(-17.88 640.0 360.0)"><rect x="726.11" y="-216.0" width="0.86" height="1152.0" fill="rgba(255,255,255,0.101)"/><rect x="922.68" y="-216.0" width="1.58" height="1152.0" fill="rgba(255,255,255,0.053)"/><rect x="192.77" y="-216.0" width="1.47" height="1152.0" fill="rgba(255,255,255,0.1)"/><rect x="1178.4" y="-216.0" width="1.24" height="1152.0" fill="rgba(58,123,213,0.117)"/><rect x="138.17" y="-216.0" width="1.64" height="1152.0" fill="rgba(255,255,255,0.046)"/></g>
  <rect x="0" y="515.37" width="1280" height="1" fill="rgba(255,255,255,0.1)"/><rect x="0" y="515.37" width="1280" height="204.63" fill="url(#floor)"/>
  <rect x="533.74" y="86.4" width="31.22" height="475.2" fill="url(#mono)"/>
  <rect width="1280" height="720" fill="url(#glowA)"/>
  <circle cx="250.24" cy="17.67" r="1.98" fill="rgba(255,255,255,0.292)"/><circle cx="1195.9" cy="279.32" r="1.53" fill="rgba(255,255,255,0.352)"/><circle cx="850.05" cy="632.19" r="1.22" fill="rgba(58,123,213,0.175)"/><circle cx="1073.9" cy="247.09" r="1.13" fill="rgba(255,255,255,0.387)"/><circle cx="547.99" cy="670.51" r="1.71" fill="rgba(58,123,213,0.273)"/><circle cx="1048.24" cy="488.37" r="1.91" fill="rgba(58,123,213,0.335)"/><circle cx="534.1" cy="564.57" r="2.31" fill="rgba(255,255,255,0.2)"/><circle cx="463.63" cy="376.2" r="2.31" fill="rgba(255,255,255,0.466)"/><circle cx="777.49" cy="592.45" r="1.83" fill="rgba(255,255,255,0.324)"/><circle cx="808.18" cy="442.73" r="0.6" fill="rgba(58,123,213,0.266)"/><circle cx="682.34" cy="199.98" r="1.64" fill="rgba(58,123,213,0.353)"/><circle cx="501.48" cy="19.93" r="1.96" fill="rgba(255,255,255,0.16)"/><circle cx="474.02" cy="30.34" r="2.14" fill="rgba(255,255,255,0.251)"/><circle cx="1056.8" cy="139.55" r="1.07" fill="rgba(255,255,255,0.284)"/><circle cx="635.57" cy="684.42" r="0.91" fill="rgba(255,255,255,0.265)"/><circle cx="580.79" cy="114.93" r="2.1" fill="rgba(255,255,255,0.382)"/><circle cx="530.67" cy="393.82" r="1.27" fill="rgba(255,255,255,0.408)"/><circle cx="796.96" cy="95.77" r="1.01" fill="rgba(255,255,255,0.097)"/><circle cx="161.24" cy="386.83" r="1.31" fill="rgba(255,255,255,0.457)"/><circle cx="267.87" cy="167.89" r="1.74" fill="rgba(255,255,255,0.466)"/><circle cx="1092.42" cy="422.75" r="1.45" fill="rgba(255,255,255,0.334)"/><circle cx="1037.44" cy="687.4" r="1.89" fill="rgba(255,255,255,0.118)"/><circle cx="1256.57" cy="275.9" r="2.21" fill="rgba(255,255,255,0.489)"/><circle cx="1090.24" cy="497.83" r="0.67" fill="rgba(58,123,213,0.124)"/><circle cx="176.08" cy="628.4" r="1.99" fill="rgba(255,255,255,0.331)"/><circle cx="1269.98" cy="541.79" r="2.3" fill="rgba(255,255,255,0.189)"/><circle cx="1090.09" cy="55.6" r="1.54" fill="rgba(58,123,213,0.465)"/>
  
  <rect width="1280" height="720" fill="url(#vig)"/>
  <rect width="1280" height="720" filter="url(#grain)" opacity="0.06"/>
  <path d="M34 62 V34 H62" stroke="rgba(255,255,255,0.14)" stroke-width="1" fill="none"/><path d="M1218 34 H1246 V62" stroke="rgba(255,255,255,0.14)" stroke-width="1" fill="none"/><path d="M34 658 V686 H62" stroke="rgba(255,255,255,0.14)" stroke-width="1" fill="none"/><path d="M1218 686 H1246 V658" stroke="rgba(255,255,255,0.14)" stroke-width="1" fill="none"/>
  <rect x="0.5" y="0.5" width="1279" height="719" fill="none" stroke="rgba(255,255,255,0.06)"/>
</svg>