<svg xmlns="http://www.w3.org/2000/svg" width="1280" height="720" viewBox="0 0 1280 720">
  <defs>
    <linearGradient id="base" x1="0" y1="0" x2="0.25" y2="1">
      <stop offset="0" stop-color="rgb(12,16,23)"/>
      <stop offset="1" stop-color="rgb(6,6,8)"/>
    </linearGradient>
    <radialGradient id="glowA" cx="0.48" cy="0.21" r="0.72">
      <stop offset="0" stop-color="rgba(58,123,213,0.3)"/>
      <stop offset="0.42" stop-color="rgba(58,123,213,0.1)"/>
      <stop offset="1" stop-color="rgba(58,123,213,0)"/>
    </radialGradient>
    <radialGradient id="glowB" cx="0.29" cy="0.59" r="0.47">
      <stop offset="0" stop-color="rgba(117,163,226,0.1)"/>
      <stop offset="1" stop-color="rgba(58,123,213,0)"/>
    </radialGradient>
    <radialGradient id="vig" cx="0.5" cy="0.46" r="0.75">
      <stop offset="0.45" stop-color="rgba(0,0,0,0)"/>
      <stop offset="1" stop-color="rgba(0,0,0,0.62)"/>
    </radialGradient>
    <linearGradient id="scrim" x1="0" y1="0" x2="0" y2="1">
      <stop offset="0.5" stop-color="rgba(7,7,8,0)"/>
      <stop offset="1" stop-color="rgba(7,7,8,0.78)"/>
    </linearGradient>
    <linearGradient id="mono" x1="0" y1="0" x2="0" y2="1">
      <stop offset="0" stop-color="rgba(58,123,213,0)"/>
      <stop offset="0.5" stop-color="rgba(58,123,213,0.5)"/>
      <stop offset="1" stop-color="rgba(58,123,213,0)"/>
    </linearGradient>
    <linearGradient id="floor" x1="0" y1="0" x2="0" y2="1">
      <stop offset="0" stop-color="rgba(58,123,213,0.06)"/>
      <stop offset="1" stop-color="rgba(0,0,0,0)"/>
    </linearGradient>
    <filter id="grain"><feTurbulence type="fractalNoise" baseFrequency="0.9" numOctaves="2" stitchTiles="stitch"/><feColorMatrix type="saturate" values="0"/></filter>
  </defs>
  <rect width="1280" height="720" fill="url(#base)"/>
  <rect width="1280" height="720" fill="url(#glowB)"/>
  <g transform="rotate(-19.47 640.0 360.0)"><rect x="289.51" y="-216.0" width="1.83" height="1152.0" fill="rgba(58,123,213,0.065)"/><rect x="500.9" y="-216.0" width="1.38" height="1152.0" fill="rgba(58,123,213,0.075)"/><rect x="777.17" y="-216.0" width="0.65" height="1152.0" fill="rgba(58,123,213,0.061)"/><rect x="553.81" y="-216.0" width="1.64" height="1152.0" fill="rgba(255,255,255,0.077)"/><rect x="158.08" y="-216.0" width="1.38" height="1152.0" fill="rgba(255,255,255,0.098)"/><rect x="847.63" y="-216.0" width="0.74" height="1152.0" fill="rgba(255,255,255,0.04)"/></g>
  <rect x="0" y="447.01" width="1280" height="1" fill="rgba(255,255,255,0.1)"/><rect x="0" y="447.01" width="1280" height="272.99" fill="url(#floor)"/>
  <rect x="473.16" y="86.4" width="22.43" height="475.2" fill="url(#mono)"/>
  <rect width="1280" height="720" fill="url(#glowA)"/>
  <circle cx="57.83" cy="260.93" r="2.36" fill="rgba(255,255,255,0.232)"/><circle cx="660.9" cy="337.88" r="1.25" fill="rgba(255,255,255,0.419)"/><circle cx="1118.65" cy="58.42" r="2.32" fill="rgba(58,123,213,0.265)"/><circle cx="438.15" cy="508.87" r="1.92" fill="rgba(255,255,255,0.448)"/><circle cx="544.6" cy="285.13" r="1.31" fill="rgba(58,123,213,0.175)"/><circle cx="46.74" cy="55.68" r="1.99" fill="rgba(255,255,255,0.27)"/><circle cx="175.48" cy="324.33" r="1.87" fill="rgba(255,255,255,0.262)"/><circle cx="1.8" cy="38.33" r="2.53" fill="rgba(255,255,255,0.09)"/><circle cx="706.31" cy="154.86" r="1.07" fill="rgba(58,123,213,0.139)"/><circle cx="309.76" cy="136.37" r="1.41" fill="rgba(255,255,255,0.225)"/><circle cx="393.48" cy="424.94" r="0.76" fill="rgba(255,255,255,0.321)"/><circle cx="1183.44" cy="396.09" r="0.73" fill="rgba(255,255,255,0.113)"/><circle cx="637.29" cy="40.72" r="1.88" fill="rgba(255,255,255,0.357)"/><circle cx="672.63" cy="165.4" r="1.39" fill="rgba(255,255,255,0.366)"/><circle cx="853.34" cy="628.23" r="1.12" fill="rgba(58,123,213,0.146)"/><circle cx="676.34" cy="375.36" r="1.77" fill="rgba(255,255,255,0.223)"/><circle cx="367.23" cy="615.65" r="2.18" fill="rgba(255,255,255,0.397)"/><circle cx="745.0" cy="521.8" r="1.1" fill="rgba(255,255,255,0.234)"/><circle cx="1223.8" cy="246.93" r="2.34" fill="rgba(255,255,255,0.203)"/><circle cx="513.92" cy="152.37" r="1.09" fill="rgba(58,123,213,0.248)"/><circle cx="974.18" cy="264.46" r="1.46" fill="rgba(255,255,255,0.102)"/>
  
  <rect width="1280" height="720" fill="url(#vig)"/>
  <rect width="1280" height="720" filter="url(#grain)" opacity="0.06"/>
  <path d="M34 62 V34 H62" stroke="rgba(255,255,255,0.14)" stroke-width="1" fill="none"/><path d="M1218 34 H1246 V62" stroke="rgba(255,255,255,0.14)" stroke-width="1" fill="none"/><path d="M34 658 V686 H62" stroke="rgba(255,255,255,0.14)" stroke-width="1" fill="none"/><path d="M1218 686 H1246 V658" stroke="rgba(255,255,255,0.14)" stroke-width="1" fill="none"/>
  <rect x="0.5" y="0.5" width="1279" height="719" fill="none" stroke="rgba(255,255,255,0.06)"/>
</svg>