<svg xmlns="http://www.w3.org/2000/svg" width="1280" height="720" viewBox="0 0 1280 720">
  <defs>
    <linearGradient id="base" x1="0" y1="0" x2="0.25" y2="1">
      <stop offset="0" stop-color="rgb(12,16,23)"/>
      <stop offset="1" stop-color="rgb(6,6,8)"/>
    </linearGradient>
    <radialGradient id="glowA" cx="0.46" cy="0.37" r="0.64">
      <stop offset="0" stop-color="rgba(58,123,213,0.3)"/>
      <stop offset="0.42" stop-color="rgba(58,123,213,0.1)"/>
      <stop offset="1" stop-color="rgba(58,123,213,0)"/>
    </radialGradient>
    <radialGradient id="glowB" cx="0.32" cy="0.84" r="0.44">
      <stop offset="0" stop-color="rgba(117,163,226,0.1)"/>
      <stop offset="1" stop-color="rgba(58,123,213,0)"/>
    </radialGradient>
    <radialGradient id="vig" cx="0.5" cy="0.46" r="0.75">
      <stop offset="0.45" stop-color="rgba(0,0,0,0)"/>
      <stop offset="1" stop-color="rgba(0,0,0,0.62)"/>
    </radialGradient>
    <linearGradient id="scrim" x1="0" y1="0" x2="0" y2="1">
      <stop offset="0.5" stop-color="rgba(7,7,8,0)"/>
      <stop offset="1" stop-color="rgba(7,7,8,0.78)"/>
    </linearGradient>
    <linearGradient id="mono" x1="0" y1="0" x2="0" y2="1">
      <stop offset="0" stop-color="rgba(58,123,213,0)"/>
      <stop offset="0.5" stop-color="rgba(58,123,213,0.5)"/>
      <stop offset="1" stop-color="rgba(58,123,213,0)"/>
    </linearGradient>
    <linearGradient id="floor" x1="0" y1="0" x2="0" y2="1">
      <stop offset="0" stop-color="rgba(58,123,213,0.06)"/>
      <stop offset="1" stop-color="rgba(0,0,0,0)"/>
    </linearGradient>
    <filter id="grain"><feTurbulence type="fractalNoise" baseFrequency="0.9" numOctaves="2" stitchTiles="stitch"/><feColorMatrix type="saturate" values="0"/></filter>
  </defs>
  <rect width="1280" height="720" fill="url(#base)"/>
  <rect width="1280" height="720" fill="url(#glowB)"/>
  <g transform="rotate(-14.51 640.0 360.0)"><rect x="911.79" y="-216.0" width="0.97" height="1152.0" fill="rgba(58,123,213,0.179)"/><rect x="1178.16" y="-216.0" width="1.52" height="1152.0" fill="rgba(255,255,255,0.114)"/><rect x="1200.65" y="-216.0" width="2.57" height="1152.0" fill="rgba(58,123,213,0.121)"/><rect x="146.29" y="-216.0" width="2.47" height="1152.0" fill="rgba(255,255,255,0.136)"/><rect x="1075.89" y="-216.0" width="1.76" height="1152.0" fill="rgba(58,123,213,0.079)"/><rect x="711.04" y="-216.0" width="0.96" height="1152.0" fill="rgba(58,123,213,0.132)"/></g>
  <rect x="0" y="539.79" width="1280" height="1" fill="rgba(255,255,255,0.1)"/><rect x="0" y="539.79" width="1280" height="180.21" fill="url(#floor)"/>
  <path d="M 359.43 345.91 A 396.37 396.37 0 0 1 1152.18 345.91" fill="none" stroke="rgba(58,123,213,0.26)" stroke-width="2"/><path d="M 517.98 345.91 A 237.82 237.82 0 0 1 993.63 345.91" fill="none" stroke="rgba(255,255,255,0.07)" stroke-width="1"/>
  <rect width="1280" height="720" fill="url(#glowA)"/>
  <circle cx="1214.76" cy="96.88" r="0.75" fill="rgba(58,123,213,0.348)"/><circle cx="949.72" cy="356.67" r="1.35" fill="rgba(255,255,255,0.405)"/><circle cx="56.17" cy="617.55" r="2.2" fill="rgba(255,255,255,0.37)"/><circle cx="532.71" cy="235.26" r="2.0" fill="rgba(255,255,255,0.312)"/><circle cx="142.41" cy="447.01" r="0.81" fill="rgba(255,255,255,0.374)"/><circle cx="779.9" cy="507.91" r="1.38" fill="rgba(58,123,213,0.317)"/><circle cx="820.26" cy="208.98" r="1.61" fill="rgba(58,123,213,0.266)"/><circle cx="5.99" cy="322.54" r="1.67" fill="rgba(58,123,213,0.213)"/><circle cx="679.58" cy="600.1" r="1.1" fill="rgba(255,255,255,0.254)"/><circle cx="453.77" cy="358.95" r="2.28" fill="rgba(58,123,213,0.421)"/><circle cx="148.86" cy="266.69" r="1.73" fill="rgba(255,255,255,0.116)"/><circle cx="202.0" cy="692.15" r="0.79" fill="rgba(255,255,255,0.434)"/><circle cx="886.45" cy="555.14" r="2.39" fill="rgba(255,255,255,0.36)"/><circle cx="351.49" cy="205.83" r="1.97" fill="rgba(255,255,255,0.362)"/><circle cx="1236.03" cy="657.35" r="1.33" fill="rgba(255,255,255,0.45)"/>
  
  <rect width="1280" height="720" fill="url(#vig)"/>
  <rect width="1280" height="720" filter="url(#grain)" opacity="0.06"/>
  <path d="M34 62 V34 H62" stroke="rgba(255,255,255,0.14)" stroke-width="1" fill="none"/><path d="M1218 34 H1246 V62" stroke="rgba(255,255,255,0.14)" stroke-width="1" fill="none"/><path d="M34 658 V686 H62" stroke="rgba(255,255,255,0.14)" stroke-width="1" fill="none"/><path d="M1218 686 H1246 V658" stroke="rgba(255,255,255,0.14)" stroke-width="1" fill="none"/>
  <rect x="0.5" y="0.5" width="1279" height="719" fill="none" stroke="rgba(255,255,255,0.06)"/>
</svg>