<svg xmlns="http://www.w3.org/2000/svg" width="600" height="900" viewBox="0 0 600 900">
  <defs>
    <linearGradient id="base" x1="0" y1="0" x2="0.25" y2="1">
      <stop offset="0" stop-color="rgb(12,16,23)"/>
      <stop offset="1" stop-color="rgb(6,6,8)"/>
    </linearGradient>
    <radialGradient id="glowA" cx="0.26" cy="0.43" r="0.71">
      <stop offset="0" stop-color="rgba(58,123,213,0.3)"/>
      <stop offset="0.42" stop-color="rgba(58,123,213,0.1)"/>
      <stop offset="1" stop-color="rgba(58,123,213,0)"/>
    </radialGradient>
    <radialGradient id="glowB" cx="0.48" cy="0.87" r="0.47">
      <stop offset="0" stop-color="rgba(117,163,226,0.1)"/>
      <stop offset="1" stop-color="rgba(58,123,213,0)"/>
    </radialGradient>
    <radialGradient id="vig" cx="0.5" cy="0.46" r="0.75">
      <stop offset="0.45" stop-color="rgba(0,0,0,0)"/>
      <stop offset="1" stop-color="rgba(0,0,0,0.62)"/>
    </radialGradient>
    <linearGradient id="scrim" x1="0" y1="0" x2="0" y2="1">
      <stop offset="0.5" stop-color="rgba(7,7,8,0)"/>
      <stop offset="1" stop-color="rgba(7,7,8,0.78)"/>
    </linearGradient>
    <linearGradient id="mono" x1="0" y1="0" x2="0" y2="1">
      <stop offset="0" stop-color="rgba(58,123,213,0)"/>
      <stop offset="0.5" stop-color="rgba(58,123,213,0.5)"/>
      <stop offset="1" stop-color="rgba(58,123,213,0)"/>
    </linearGradient>
    <linearGradient id="floor" x1="0" y1="0" x2="0" y2="1">
      <stop offset="0" stop-color="rgba(58,123,213,0.06)"/>
      <stop offset="1" stop-color="rgba(0,0,0,0)"/>
    </linearGradient>
    <filter id="grain"><feTurbulence type="fractalNoise" baseFrequency="0.9" numOctaves="2" stitchTiles="stitch"/><feColorMatrix type="saturate" values="0"/></filter>
  </defs>
  <rect width="600" height="900" fill="url(#base)"/>
  <rect width="600" height="900" fill="url(#glowB)"/>
  <g transform="rotate(-21.12 300.0 450.0)"><rect x="543.76" y="-270.0" width="2.17" height="1440.0" fill="rgba(255,255,255,0.132)"/><rect x="286.73" y="-270.0" width="0.81" height="1440.0" fill="rgba(255,255,255,0.113)"/><rect x="214.95" y="-270.0" width="1.87" height="1440.0" fill="rgba(58,123,213,0.084)"/><rect x="80.86" y="-270.0" width="1.31" height="1440.0" fill="rgba(58,123,213,0.086)"/><rect x="485.55" y="-270.0" width="1.24" height="1440.0" fill="rgba(255,255,255,0.08)"/></g>
  
  <circle cx="378.02" cy="487.11" r="263.91" fill="none" stroke="rgba(58,123,213,0.22)" stroke-width="1.5"/><circle cx="378.02" cy="487.11" r="163.62" fill="none" stroke="rgba(255,255,255,0.06)" stroke-width="1"/>
  <rect width="600" height="900" fill="url(#glowA)"/>
  <circle cx="544.54" cy="572.83" r="0.77" fill="rgba(58,123,213,0.499)"/><circle cx="121.42" cy="652.93" r="0.95" fill="rgba(255,255,255,0.344)"/><circle cx="91.37" cy="557.03" r="1.92" fill="rgba(255,255,255,0.132)"/><circle cx="65.67" cy="80.2" r="1.23" fill="rgba(255,255,255,0.132)"/><circle cx="502.08" cy="406.28" r="0.63" fill="rgba(58,123,213,0.392)"/><circle cx="159.55" cy="290.49" r="1.66" fill="rgba(255,255,255,0.45)"/><circle cx="102.68" cy="246.98" r="0.62" fill="rgba(255,255,255,0.473)"/><circle cx="325.96" cy="302.64" r="0.84" fill="rgba(255,255,255,0.424)"/><circle cx="60.67" cy="566.95" r="1.09" fill="rgba(255,255,255,0.182)"/><circle cx="431.52" cy="687.01" r="2.34" fill="rgba(255,255,255,0.331)"/><circle cx="189.78" cy="682.68" r="2.47" fill="rgba(255,255,255,0.195)"/><circle cx="380.11" cy="132.53" r="0.72" fill="rgba(58,123,213,0.439)"/><circle cx="440.57" cy="678.01" r="0.6" fill="rgba(58,123,213,0.494)"/><circle cx="341.7" cy="700.87" r="1.38" fill="rgba(255,255,255,0.389)"/><circle cx="147.53" cy="750.7" r="1.43" fill="rgba(58,123,213,0.383)"/><circle cx="543.18" cy="488.25" r="1.7" fill="rgba(255,255,255,0.215)"/><circle cx="271.33" cy="813.05" r="1.21" fill="rgba(255,255,255,0.265)"/><circle cx="434.27" cy="276.68" r="2.59" fill="rgba(58,123,213,0.426)"/><circle cx="425.27" cy="269.05" r="0.92" fill="rgba(255,255,255,0.312)"/><circle cx="325.41" cy="871.24" r="0.64" fill="rgba(58,123,213,0.133)"/><circle cx="50.82" cy="599.77" r="1.09" fill="rgba(255,255,255,0.464)"/>
  <rect width="600" height="900" fill="url(#scrim)"/>
  <rect width="600" height="900" fill="url(#vig)"/>
  <rect width="600" height="900" filter="url(#grain)" opacity="0.06"/>
  <path d="M26 46 V26 H46" stroke="rgba(255,255,255,0.14)" stroke-width="1" fill="none"/><path d="M554 26 H574 V46" stroke="rgba(255,255,255,0.14)" stroke-width="1" fill="none"/><path d="M26 854 V874 H46" stroke="rgba(255,255,255,0.14)" stroke-width="1" fill="none"/><path d="M554 874 H574 V854" stroke="rgba(255,255,255,0.14)" stroke-width="1" fill="none"/>
  <rect x="0.5" y="0.5" width="599" height="899" fill="none" stroke="rgba(255,255,255,0.06)"/>
</svg>