<svg xmlns="http://www.w3.org/2000/svg" width="1280" height="720" viewBox="0 0 1280 720">
  <defs>
    <linearGradient id="base" x1="0" y1="0" x2="0.25" y2="1">
      <stop offset="0" stop-color="rgb(14,18,15)"/>
      <stop offset="1" stop-color="rgb(6,6,8)"/>
    </linearGradient>
    <radialGradient id="glowA" cx="0.44" cy="0.44" r="0.77">
      <stop offset="0" stop-color="rgba(86,171,47,0.3)"/>
      <stop offset="0.42" stop-color="rgba(86,171,47,0.1)"/>
      <stop offset="1" stop-color="rgba(86,171,47,0)"/>
    </radialGradient>
    <radialGradient id="glowB" cx="0.69" cy="0.52" r="0.58">
      <stop offset="0" stop-color="rgba(137,196,109,0.1)"/>
      <stop offset="1" stop-color="rgba(86,171,47,0)"/>
    </radialGradient>
    <radialGradient id="vig" cx="0.5" cy="0.46" r="0.75">
      <stop offset="0.45" stop-color="rgba(0,0,0,0)"/>
      <stop offset="1" stop-color="rgba(0,0,0,0.62)"/>
    </radialGradient>
    <linearGradient id="scrim" x1="0" y1="0" x2="0" y2="1">
      <stop offset="0.5" stop-color="rgba(7,7,8,0)"/>
      <stop offset="1" stop-color="rgba(7,7,8,0.78)"/>
    </linearGradient>
    <linearGradient id="mono" x1="0" y1="0" x2="0" y2="1">
      <stop offset="0" stop-color="rgba(86,171,47,0)"/>
      <stop offset="0.5" stop-color="rgba(86,171,47,0.5)"/>
      <stop offset="1" stop-color="rgba(86,171,47,0)"/>
    </linearGradient>
    <linearGradient id="floor" x1="0" y1="0" x2="0" y2="1">
      <stop offset="0" stop-color="rgba(86,171,47,0.06)"/>
      <stop offset="1" stop-color="rgba(0,0,0,0)"/>
    </linearGradient>
    <filter id="grain"><feTurbulence type="fractalNoise" baseFrequency="0.9" numOctaves="2" stitchTiles="stitch"/><feColorMatrix type="saturate" values="0"/></filter>
  </defs>
  <rect width="1280" height="720" fill="url(#base)"/>
  <rect width="1280" height="720" fill="url(#glowB)"/>
  <g transform="rotate(-19.81 640.0 360.0)"><rect x="878.22" y="-216.0" width="1.03" height="1152.0" fill="rgba(255,255,255,0.066)"/><rect x="502.06" y="-216.0" width="1.35" height="1152.0" fill="rgba(86,171,47,0.159)"/><rect x="457.54" y="-216.0" width="2.41" height="1152.0" fill="rgba(86,171,47,0.111)"/><rect x="647.62" y="-216.0" width="2.53" height="1152.0" fill="rgba(86,171,47,0.136)"/><rect x="497.79" y="-216.0" width="1.61" height="1152.0" fill="rgba(255,255,255,0.11)"/><rect x="177.69" y="-216.0" width="1.57" height="1152.0" fill="rgba(255,255,255,0.115)"/><rect x="1071.48" y="-216.0" width="0.67" height="1152.0" fill="rgba(86,171,47,0.134)"/><rect x="500.79" y="-216.0" width="1.78" height="1152.0" fill="rgba(255,255,255,0.107)"/></g>
  <rect x="0" y="548.58" width="1280" height="1" fill="rgba(255,255,255,0.1)"/><rect x="0" y="548.58" width="1280" height="171.42" fill="url(#floor)"/>
  <rect x="600.04" y="86.4" width="31.76" height="475.2" fill="url(#mono)"/>
  <rect width="1280" height="720" fill="url(#glowA)"/>
  <circle cx="908.68" cy="338.99" r="0.93" fill="rgba(255,255,255,0.363)"/><circle cx="514.69" cy="406.09" r="0.66" fill="rgba(86,171,47,0.35)"/><circle cx="1109.41" cy="621.41" r="1.75" fill="rgba(86,171,47,0.257)"/><circle cx="837.53" cy="228.81" r="1.18" fill="rgba(86,171,47,0.315)"/><circle cx="552.74" cy="450.9" r="2.1" fill="rgba(86,171,47,0.245)"/><circle cx="434.53" cy="356.16" r="2.03" fill="rgba(255,255,255,0.497)"/><circle cx="430.86" cy="217.79" r="1.08" fill="rgba(86,171,47,0.376)"/><circle cx="1148.53" cy="343.28" r="2.37" fill="rgba(255,255,255,0.244)"/><circle cx="392.62" cy="421.68" r="1.1" fill="rgba(255,255,255,0.141)"/><circle cx="147.98" cy="373.34" r="1.45" fill="rgba(255,255,255,0.223)"/><circle cx="600.89" cy="673.21" r="2.18" fill="rgba(255,255,255,0.139)"/><circle cx="922.57" cy="301.63" r="1.62" fill="rgba(255,255,255,0.122)"/><circle cx="953.09" cy="203.55" r="2.41" fill="rgba(255,255,255,0.136)"/><circle cx="1238.65" cy="550.86" r="2.38" fill="rgba(86,171,47,0.099)"/><circle cx="1254.69" cy="403.83" r="1.65" fill="rgba(255,255,255,0.465)"/><circle cx="610.05" cy="511.83" r="0.97" fill="rgba(86,171,47,0.193)"/><circle cx="812.51" cy="150.21" r="0.98" fill="rgba(255,255,255,0.086)"/><circle cx="451.54" cy="654.81" r="1.7" fill="rgba(255,255,255,0.149)"/><circle cx="822.63" cy="711.89" r="1.58" fill="rgba(86,171,47,0.445)"/><circle cx="233.46" cy="501.09" r="2.19" fill="rgba(86,171,47,0.168)"/><circle cx="965.23" cy="495.05" r="0.67" fill="rgba(255,255,255,0.327)"/><circle cx="577.66" cy="537.16" r="2.32" fill="rgba(255,255,255,0.085)"/><circle cx="26.07" cy="457.67" r="2.1" fill="rgba(255,255,255,0.206)"/>
  
  <rect width="1280" height="720" fill="url(#vig)"/>
  <rect width="1280" height="720" filter="url(#grain)" opacity="0.06"/>
  <path d="M34 62 V34 H62" stroke="rgba(255,255,255,0.14)" stroke-width="1" fill="none"/><path d="M1218 34 H1246 V62" stroke="rgba(255,255,255,0.14)" stroke-width="1" fill="none"/><path d="M34 658 V686 H62" stroke="rgba(255,255,255,0.14)" stroke-width="1" fill="none"/><path d="M1218 686 H1246 V658" stroke="rgba(255,255,255,0.14)" stroke-width="1" fill="none"/>
  <rect x="0.5" y="0.5" width="1279" height="719" fill="none" stroke="rgba(255,255,255,0.06)"/>
</svg>