<svg xmlns="http://www.w3.org/2000/svg" width="1280" height="720" viewBox="0 0 1280 720">
  <defs>
    <linearGradient id="base" x1="0" y1="0" x2="0.25" y2="1">
      <stop offset="0" stop-color="rgb(14,18,15)"/>
      <stop offset="1" stop-color="rgb(6,6,8)"/>
    </linearGradient>
    <radialGradient id="glowA" cx="0.35" cy="0.25" r="0.87">
      <stop offset="0" stop-color="rgba(86,171,47,0.3)"/>
      <stop offset="0.42" stop-color="rgba(86,171,47,0.1)"/>
      <stop offset="1" stop-color="rgba(86,171,47,0)"/>
    </radialGradient>
    <radialGradient id="glowB" cx="0.5" cy="0.74" r="0.46">
      <stop offset="0" stop-color="rgba(137,196,109,0.1)"/>
      <stop offset="1" stop-color="rgba(86,171,47,0)"/>
    </radialGradient>
    <radialGradient id="vig" cx="0.5" cy="0.46" r="0.75">
      <stop offset="0.45" stop-color="rgba(0,0,0,0)"/>
      <stop offset="1" stop-color="rgba(0,0,0,0.62)"/>
    </radialGradient>
    <linearGradient id="scrim" x1="0" y1="0" x2="0" y2="1">
      <stop offset="0.5" stop-color="rgba(7,7,8,0)"/>
      <stop offset="1" stop-color="rgba(7,7,8,0.78)"/>
    </linearGradient>
    <linearGradient id="mono" x1="0" y1="0" x2="0" y2="1">
      <stop offset="0" stop-color="rgba(86,171,47,0)"/>
      <stop offset="0.5" stop-color="rgba(86,171,47,0.5)"/>
      <stop offset="1" stop-color="rgba(86,171,47,0)"/>
    </linearGradient>
    <linearGradient id="floor" x1="0" y1="0" x2="0" y2="1">
      <stop offset="0" stop-color="rgba(86,171,47,0.06)"/>
      <stop offset="1" stop-color="rgba(0,0,0,0)"/>
    </linearGradient>
    <filter id="grain"><feTurbulence type="fractalNoise" baseFrequency="0.9" numOctaves="2" stitchTiles="stitch"/><feColorMatrix type="saturate" values="0"/></filter>
  </defs>
  <rect width="1280" height="720" fill="url(#base)"/>
  <rect width="1280" height="720" fill="url(#glowB)"/>
  <g transform="rotate(-17.83 640.0 360.0)"><rect x="556.95" y="-216.0" width="2.56" height="1152.0" fill="rgba(255,255,255,0.14)"/><rect x="1034.91" y="-216.0" width="0.65" height="1152.0" fill="rgba(255,255,255,0.117)"/><rect x="340.42" y="-216.0" width="1.19" height="1152.0" fill="rgba(255,255,255,0.07)"/><rect x="182.47" y="-216.0" width="1.57" height="1152.0" fill="rgba(255,255,255,0.067)"/><rect x="180.43" y="-216.0" width="2.03" height="1152.0" fill="rgba(255,255,255,0.089)"/></g>
  <rect x="0" y="456.43" width="1280" height="1" fill="rgba(255,255,255,0.1)"/><rect x="0" y="456.43" width="1280" height="263.57" fill="url(#floor)"/>
  <rect x="524.26" y="86.4" width="30.23" height="475.2" fill="url(#mono)"/>
  <rect width="1280" height="720" fill="url(#glowA)"/>
  <circle cx="36.67" cy="71.81" r="1.49" fill="rgba(86,171,47,0.198)"/><circle cx="525.28" cy="72.78" r="0.62" fill="rgba(255,255,255,0.253)"/><circle cx="481.24" cy="619.79" r="2.07" fill="rgba(255,255,255,0.426)"/><circle cx="1186.12" cy="566.87" r="2.17" fill="rgba(255,255,255,0.369)"/><circle cx="900.4" cy="230.24" r="1.19" fill="rgba(255,255,255,0.131)"/><circle cx="1270.9" cy="23.07" r="0.94" fill="rgba(86,171,47,0.19)"/><circle cx="61.63" cy="615.9" r="1.29" fill="rgba(86,171,47,0.241)"/><circle cx="251.88" cy="60.58" r="1.02" fill="rgba(86,171,47,0.494)"/><circle cx="747.85" cy="69.35" r="2.01" fill="rgba(255,255,255,0.46)"/><circle cx="934.88" cy="222.21" r="1.67" fill="rgba(255,255,255,0.285)"/><circle cx="718.35" cy="522.37" r="1.49" fill="rgba(86,171,47,0.447)"/><circle cx="1111.54" cy="358.18" r="1.95" fill="rgba(255,255,255,0.082)"/><circle cx="757.37" cy="716.29" r="1.41" fill="rgba(255,255,255,0.448)"/><circle cx="885.8" cy="159.07" r="1.49" fill="rgba(255,255,255,0.321)"/><circle cx="805.16" cy="327.22" r="1.78" fill="rgba(86,171,47,0.353)"/><circle cx="1157.1" cy="190.95" r="2.53" fill="rgba(255,255,255,0.383)"/><circle cx="1154.37" cy="549.94" r="1.57" fill="rgba(255,255,255,0.466)"/><circle cx="853.59" cy="52.98" r="0.95" fill="rgba(255,255,255,0.355)"/><circle cx="1238.3" cy="418.89" r="0.95" fill="rgba(86,171,47,0.335)"/>
  
  <rect width="1280" height="720" fill="url(#vig)"/>
  <rect width="1280" height="720" filter="url(#grain)" opacity="0.06"/>
  <path d="M34 62 V34 H62" stroke="rgba(255,255,255,0.14)" stroke-width="1" fill="none"/><path d="M1218 34 H1246 V62" stroke="rgba(255,255,255,0.14)" stroke-width="1" fill="none"/><path d="M34 658 V686 H62" stroke="rgba(255,255,255,0.14)" stroke-width="1" fill="none"/><path d="M1218 686 H1246 V658" stroke="rgba(255,255,255,0.14)" stroke-width="1" fill="none"/>
  <rect x="0.5" y="0.5" width="1279" height="719" fill="none" stroke="rgba(255,255,255,0.06)"/>
</svg>