<svg xmlns="http://www.w3.org/2000/svg" width="1280" height="720" viewBox="0 0 1280 720">
  <defs>
    <linearGradient id="base" x1="0" y1="0" x2="0.25" y2="1">
      <stop offset="0" stop-color="rgb(14,18,15)"/>
      <stop offset="1" stop-color="rgb(6,6,8)"/>
    </linearGradient>
    <radialGradient id="glowA" cx="0.41" cy="0.25" r="0.79">
      <stop offset="0" stop-color="rgba(86,171,47,0.3)"/>
      <stop offset="0.42" stop-color="rgba(86,171,47,0.1)"/>
      <stop offset="1" stop-color="rgba(86,171,47,0)"/>
    </radialGradient>
    <radialGradient id="glowB" cx="0.7" cy="0.72" r="0.42">
      <stop offset="0" stop-color="rgba(137,196,109,0.1)"/>
      <stop offset="1" stop-color="rgba(86,171,47,0)"/>
    </radialGradient>
    <radialGradient id="vig" cx="0.5" cy="0.46" r="0.75">
      <stop offset="0.45" stop-color="rgba(0,0,0,0)"/>
      <stop offset="1" stop-color="rgba(0,0,0,0.62)"/>
    </radialGradient>
    <linearGradient id="scrim" x1="0" y1="0" x2="0" y2="1">
      <stop offset="0.5" stop-color="rgba(7,7,8,0)"/>
      <stop offset="1" stop-color="rgba(7,7,8,0.78)"/>
    </linearGradient>
    <linearGradient id="mono" x1="0" y1="0" x2="0" y2="1">
      <stop offset="0" stop-color="rgba(86,171,47,0)"/>
      <stop offset="0.5" stop-color="rgba(86,171,47,0.5)"/>
      <stop offset="1" stop-color="rgba(86,171,47,0)"/>
    </linearGradient>
    <linearGradient id="floor" x1="0" y1="0" x2="0" y2="1">
      <stop offset="0" stop-color="rgba(86,171,47,0.06)"/>
      <stop offset="1" stop-color="rgba(0,0,0,0)"/>
    </linearGradient>
    <filter id="grain"><feTurbulence type="fractalNoise" baseFrequency="0.9" numOctaves="2" stitchTiles="stitch"/><feColorMatrix type="saturate" values="0"/></filter>
  </defs>
  <rect width="1280" height="720" fill="url(#base)"/>
  <rect width="1280" height="720" fill="url(#glowB)"/>
  <g transform="rotate(-16.13 640.0 360.0)"><rect x="197.87" y="-216.0" width="1.48" height="1152.0" fill="rgba(86,171,47,0.177)"/><rect x="964.7" y="-216.0" width="0.82" height="1152.0" fill="rgba(255,255,255,0.086)"/><rect x="897.62" y="-216.0" width="1.08" height="1152.0" fill="rgba(255,255,255,0.136)"/><rect x="544.24" y="-216.0" width="2.42" height="1152.0" fill="rgba(86,171,47,0.074)"/><rect x="338.13" y="-216.0" width="1.37" height="1152.0" fill="rgba(255,255,255,0.108)"/><rect x="402.82" y="-216.0" width="0.84" height="1152.0" fill="rgba(255,255,255,0.104)"/><rect x="161.98" y="-216.0" width="1.61" height="1152.0" fill="rgba(86,171,47,0.134)"/></g>
  <rect x="0" y="509.78" width="1280" height="1" fill="rgba(255,255,255,0.1)"/><rect x="0" y="509.78" width="1280" height="210.22" fill="url(#floor)"/>
  <circle cx="620.54" cy="285.82" r="387.57" fill="none" stroke="rgba(86,171,47,0.22)" stroke-width="1.5"/><circle cx="620.54" cy="285.82" r="240.3" fill="none" stroke="rgba(255,255,255,0.06)" stroke-width="1"/>
  <rect width="1280" height="720" fill="url(#glowA)"/>
  <circle cx="1117.8" cy="669.62" r="0.96" fill="rgba(86,171,47,0.127)"/><circle cx="550.23" cy="707.38" r="1.01" fill="rgba(255,255,255,0.334)"/><circle cx="456.45" cy="186.15" r="1.85" fill="rgba(86,171,47,0.47)"/><circle cx="961.14" cy="415.82" r="1.21" fill="rgba(255,255,255,0.284)"/><circle cx="428.89" cy="310.32" r="1.28" fill="rgba(255,255,255,0.097)"/><circle cx="400.91" cy="636.13" r="1.28" fill="rgba(86,171,47,0.107)"/><circle cx="1189.36" cy="173.7" r="0.9" fill="rgba(86,171,47,0.297)"/><circle cx="846.56" cy="147.37" r="1.73" fill="rgba(86,171,47,0.343)"/><circle cx="680.51" cy="109.18" r="1.87" fill="rgba(255,255,255,0.36)"/><circle cx="138.1" cy="688.37" r="1.92" fill="rgba(86,171,47,0.41)"/><circle cx="1057.45" cy="359.89" r="1.82" fill="rgba(255,255,255,0.181)"/><circle cx="115.02" cy="424.94" r="1.37" fill="rgba(255,255,255,0.372)"/><circle cx="587.19" cy="266.76" r="1.4" fill="rgba(255,255,255,0.273)"/><circle cx="454.75" cy="610.81" r="1.15" fill="rgba(255,255,255,0.183)"/><circle cx="251.41" cy="526.82" r="2.38" fill="rgba(255,255,255,0.425)"/><circle cx="532.59" cy="297.66" r="0.76" fill="rgba(86,171,47,0.209)"/><circle cx="1151.7" cy="508.19" r="1.67" fill="rgba(255,255,255,0.424)"/><circle cx="585.44" cy="355.94" r="1.15" fill="rgba(255,255,255,0.424)"/><circle cx="836.18" cy="472.89" r="1.27" fill="rgba(86,171,47,0.344)"/><circle cx="153.31" cy="58.85" r="2.16" fill="rgba(255,255,255,0.297)"/><circle cx="533.97" cy="245.74" r="0.91" fill="rgba(86,171,47,0.374)"/><circle cx="1152.36" cy="212.22" r="2.11" fill="rgba(255,255,255,0.455)"/>
  
  <rect width="1280" height="720" fill="url(#vig)"/>
  <rect width="1280" height="720" filter="url(#grain)" opacity="0.06"/>
  <path d="M34 62 V34 H62" stroke="rgba(255,255,255,0.14)" stroke-width="1" fill="none"/><path d="M1218 34 H1246 V62" stroke="rgba(255,255,255,0.14)" stroke-width="1" fill="none"/><path d="M34 658 V686 H62" stroke="rgba(255,255,255,0.14)" stroke-width="1" fill="none"/><path d="M1218 686 H1246 V658" stroke="rgba(255,255,255,0.14)" stroke-width="1" fill="none"/>
  <rect x="0.5" y="0.5" width="1279" height="719" fill="none" stroke="rgba(255,255,255,0.06)"/>
</svg>