<svg xmlns="http://www.w3.org/2000/svg" width="600" height="900" viewBox="0 0 600 900">
  <defs>
    <linearGradient id="base" x1="0" y1="0" x2="0.25" y2="1">
      <stop offset="0" stop-color="rgb(14,18,15)"/>
      <stop offset="1" stop-color="rgb(6,6,8)"/>
    </linearGradient>
    <radialGradient id="glowA" cx="0.37" cy="0.19" r="0.89">
      <stop offset="0" stop-color="rgba(86,171,47,0.3)"/>
      <stop offset="0.42" stop-color="rgba(86,171,47,0.1)"/>
      <stop offset="1" stop-color="rgba(86,171,47,0)"/>
    </radialGradient>
    <radialGradient id="glowB" cx="0.28" cy="0.73" r="0.48">
      <stop offset="0" stop-color="rgba(137,196,109,0.1)"/>
      <stop offset="1" stop-color="rgba(86,171,47,0)"/>
    </radialGradient>
    <radialGradient id="vig" cx="0.5" cy="0.46" r="0.75">
      <stop offset="0.45" stop-color="rgba(0,0,0,0)"/>
      <stop offset="1" stop-color="rgba(0,0,0,0.62)"/>
    </radialGradient>
    <linearGradient id="scrim" x1="0" y1="0" x2="0" y2="1">
      <stop offset="0.5" stop-color="rgba(7,7,8,0)"/>
      <stop offset="1" stop-color="rgba(7,7,8,0.78)"/>
    </linearGradient>
    <linearGradient id="mono" x1="0" y1="0" x2="0" y2="1">
      <stop offset="0" stop-color="rgba(86,171,47,0)"/>
      <stop offset="0.5" stop-color="rgba(86,171,47,0.5)"/>
      <stop offset="1" stop-color="rgba(86,171,47,0)"/>
    </linearGradient>
    <linearGradient id="floor" x1="0" y1="0" x2="0" y2="1">
      <stop offset="0" stop-color="rgba(86,171,47,0.06)"/>
      <stop offset="1" stop-color="rgba(0,0,0,0)"/>
    </linearGradient>
    <filter id="grain"><feTurbulence type="fractalNoise" baseFrequency="0.9" numOctaves="2" stitchTiles="stitch"/><feColorMatrix type="saturate" values="0"/></filter>
  </defs>
  <rect width="600" height="900" fill="url(#base)"/>
  <rect width="600" height="900" fill="url(#glowB)"/>
  <g transform="rotate(-20.0 300.0 450.0)"><rect x="325.96" y="-270.0" width="1.57" height="1440.0" fill="rgba(255,255,255,0.112)"/><rect x="481.07" y="-270.0" width="0.82" height="1440.0" fill="rgba(255,255,255,0.068)"/><rect x="524.52" y="-270.0" width="1.78" height="1440.0" fill="rgba(255,255,255,0.132)"/><rect x="270.45" y="-270.0" width="1.2" height="1440.0" fill="rgba(86,171,47,0.155)"/><rect x="92.21" y="-270.0" width="0.8" height="1440.0" fill="rgba(86,171,47,0.137)"/><rect x="89.35" y="-270.0" width="1.69" height="1440.0" fill="rgba(255,255,255,0.074)"/><rect x="241.75" y="-270.0" width="1.54" height="1440.0" fill="rgba(255,255,255,0.138)"/></g>
  
  <circle cx="359.97" cy="264.13" r="373.11" fill="none" stroke="rgba(86,171,47,0.22)" stroke-width="1.5"/><circle cx="359.97" cy="264.13" r="231.33" fill="none" stroke="rgba(255,255,255,0.06)" stroke-width="1"/>
  <rect width="600" height="900" fill="url(#glowA)"/>
  <circle cx="440.44" cy="864.78" r="2.16" fill="rgba(86,171,47,0.429)"/><circle cx="214.79" cy="202.72" r="0.64" fill="rgba(86,171,47,0.089)"/><circle cx="320.39" cy="762.87" r="1.94" fill="rgba(86,171,47,0.258)"/><circle cx="93.66" cy="275.73" r="2.12" fill="rgba(255,255,255,0.249)"/><circle cx="60.9" cy="672.1" r="0.68" fill="rgba(255,255,255,0.301)"/><circle cx="234.57" cy="583.56" r="0.76" fill="rgba(255,255,255,0.288)"/><circle cx="298.08" cy="402.59" r="0.71" fill="rgba(255,255,255,0.467)"/><circle cx="124.46" cy="419.98" r="2.11" fill="rgba(86,171,47,0.173)"/><circle cx="75.64" cy="598.33" r="0.83" fill="rgba(255,255,255,0.197)"/><circle cx="597.29" cy="603.04" r="2.21" fill="rgba(255,255,255,0.463)"/><circle cx="27.61" cy="279.55" r="1.06" fill="rgba(255,255,255,0.482)"/><circle cx="201.38" cy="568.19" r="1.0" fill="rgba(86,171,47,0.479)"/><circle cx="394.58" cy="879.88" r="1.53" fill="rgba(86,171,47,0.299)"/><circle cx="227.41" cy="648.59" r="1.07" fill="rgba(255,255,255,0.355)"/><circle cx="234.28" cy="718.83" r="1.98" fill="rgba(255,255,255,0.46)"/><circle cx="73.46" cy="17.89" r="2.24" fill="rgba(255,255,255,0.139)"/><circle cx="464.15" cy="543.3" r="2.34" fill="rgba(255,255,255,0.209)"/><circle cx="276.51" cy="498.66" r="1.32" fill="rgba(86,171,47,0.361)"/><circle cx="511.54" cy="31.67" r="0.9" fill="rgba(255,255,255,0.236)"/><circle cx="444.05" cy="481.35" r="1.8" fill="rgba(86,171,47,0.109)"/>
  <rect width="600" height="900" fill="url(#scrim)"/>
  <rect width="600" height="900" fill="url(#vig)"/>
  <rect width="600" height="900" filter="url(#grain)" opacity="0.06"/>
  <path d="M26 46 V26 H46" stroke="rgba(255,255,255,0.14)" stroke-width="1" fill="none"/><path d="M554 26 H574 V46" stroke="rgba(255,255,255,0.14)" stroke-width="1" fill="none"/><path d="M26 854 V874 H46" stroke="rgba(255,255,255,0.14)" stroke-width="1" fill="none"/><path d="M554 874 H574 V854" stroke="rgba(255,255,255,0.14)" stroke-width="1" fill="none"/>
  <rect x="0.5" y="0.5" width="599" height="899" fill="none" stroke="rgba(255,255,255,0.06)"/>
</svg>