<svg xmlns="http://www.w3.org/2000/svg" width="1280" height="720" viewBox="0 0 1280 720">
  <defs>
    <linearGradient id="base" x1="0" y1="0" x2="0.25" y2="1">
      <stop offset="0" stop-color="rgb(22,17,14)"/>
      <stop offset="1" stop-color="rgb(6,6,8)"/>
    </linearGradient>
    <radialGradient id="glowA" cx="0.29" cy="0.34" r="0.63">
      <stop offset="0" stop-color="rgba(247,147,30,0.3)"/>
      <stop offset="0.42" stop-color="rgba(247,147,30,0.1)"/>
      <stop offset="1" stop-color="rgba(247,147,30,0)"/>
    </radialGradient>
    <radialGradient id="glowB" cx="0.57" cy="0.63" r="0.53">
      <stop offset="0" stop-color="rgba(249,179,98,0.1)"/>
      <stop offset="1" stop-color="rgba(247,147,30,0)"/>
    </radialGradient>
    <radialGradient id="vig" cx="0.5" cy="0.46" r="0.75">
      <stop offset="0.45" stop-color="rgba(0,0,0,0)"/>
      <stop offset="1" stop-color="rgba(0,0,0,0.62)"/>
    </radialGradient>
    <linearGradient id="scrim" x1="0" y1="0" x2="0" y2="1">
      <stop offset="0.5" stop-color="rgba(7,7,8,0)"/>
      <stop offset="1" stop-color="rgba(7,7,8,0.78)"/>
    </linearGradient>
    <linearGradient id="mono" x1="0" y1="0" x2="0" y2="1">
      <stop offset="0" stop-color="rgba(247,147,30,0)"/>
      <stop offset="0.5" stop-color="rgba(247,147,30,0.5)"/>
      <stop offset="1" stop-color="rgba(247,147,30,0)"/>
    </linearGradient>
    <linearGradient id="floor" x1="0" y1="0" x2="0" y2="1">
      <stop offset="0" stop-color="rgba(247,147,30,0.06)"/>
      <stop offset="1" stop-color="rgba(0,0,0,0)"/>
    </linearGradient>
    <filter id="grain"><feTurbulence type="fractalNoise" baseFrequency="0.9" numOctaves="2" stitchTiles="stitch"/><feColorMatrix type="saturate" values="0"/></filter>
  </defs>
  <rect width="1280" height="720" fill="url(#base)"/>
  <rect width="1280" height="720" fill="url(#glowB)"/>
  <g transform="rotate(-28.25 640.0 360.0)"><rect x="438.8" y="-216.0" width="0.76" height="1152.0" fill="rgba(255,255,255,0.129)"/><rect x="427.09" y="-216.0" width="0.87" height="1152.0" fill="rgba(255,255,255,0.045)"/><rect x="558.17" y="-216.0" width="2.45" height="1152.0" fill="rgba(255,255,255,0.062)"/><rect x="949.93" y="-216.0" width="0.7" height="1152.0" fill="rgba(255,255,255,0.101)"/><rect x="455.13" y="-216.0" width="2.37" height="1152.0" fill="rgba(247,147,30,0.175)"/><rect x="460.6" y="-216.0" width="1.38" height="1152.0" fill="rgba(255,255,255,0.139)"/><rect x="572.43" y="-216.0" width="1.65" height="1152.0" fill="rgba(247,147,30,0.065)"/></g>
  <rect x="0" y="553.75" width="1280" height="1" fill="rgba(255,255,255,0.1)"/><rect x="0" y="553.75" width="1280" height="166.25" fill="url(#floor)"/>
  <rect x="545.15" y="86.4" width="20.15" height="475.2" fill="url(#mono)"/>
  <rect width="1280" height="720" fill="url(#glowA)"/>
  <circle cx="1252.03" cy="122.65" r="0.92" fill="rgba(255,255,255,0.165)"/><circle cx="708.21" cy="344.57" r="1.01" fill="rgba(247,147,30,0.391)"/><circle cx="887.4" cy="188.6" r="2.51" fill="rgba(255,255,255,0.483)"/><circle cx="1200.57" cy="501.16" r="0.64" fill="rgba(255,255,255,0.133)"/><circle cx="597.25" cy="438.7" r="1.42" fill="rgba(255,255,255,0.352)"/><circle cx="978.77" cy="344.59" r="2.31" fill="rgba(255,255,255,0.211)"/><circle cx="688.99" cy="145.97" r="1.07" fill="rgba(247,147,30,0.415)"/><circle cx="347.16" cy="404.07" r="1.63" fill="rgba(247,147,30,0.313)"/><circle cx="813.79" cy="711.59" r="2.47" fill="rgba(255,255,255,0.45)"/><circle cx="1004.03" cy="616.92" r="1.84" fill="rgba(255,255,255,0.217)"/><circle cx="503.24" cy="258.5" r="1.08" fill="rgba(255,255,255,0.39)"/><circle cx="315.38" cy="195.87" r="2.34" fill="rgba(255,255,255,0.174)"/><circle cx="8.88" cy="304.07" r="2.32" fill="rgba(247,147,30,0.252)"/><circle cx="752.64" cy="377.49" r="0.62" fill="rgba(255,255,255,0.424)"/><circle cx="957.45" cy="470.74" r="0.88" fill="rgba(247,147,30,0.096)"/>
  
  <rect width="1280" height="720" fill="url(#vig)"/>
  <rect width="1280" height="720" filter="url(#grain)" opacity="0.06"/>
  <path d="M34 62 V34 H62" stroke="rgba(255,255,255,0.14)" stroke-width="1" fill="none"/><path d="M1218 34 H1246 V62" stroke="rgba(255,255,255,0.14)" stroke-width="1" fill="none"/><path d="M34 658 V686 H62" stroke="rgba(255,255,255,0.14)" stroke-width="1" fill="none"/><path d="M1218 686 H1246 V658" stroke="rgba(255,255,255,0.14)" stroke-width="1" fill="none"/>
  <rect x="0.5" y="0.5" width="1279" height="719" fill="none" stroke="rgba(255,255,255,0.06)"/>
</svg>