<svg xmlns="http://www.w3.org/2000/svg" width="1280" height="720" viewBox="0 0 1280 720">
  <defs>
    <linearGradient id="base" x1="0" y1="0" x2="0.25" y2="1">
      <stop offset="0" stop-color="rgb(22,17,14)"/>
      <stop offset="1" stop-color="rgb(6,6,8)"/>
    </linearGradient>
    <radialGradient id="glowA" cx="0.72" cy="0.17" r="0.88">
      <stop offset="0" stop-color="rgba(247,147,30,0.3)"/>
      <stop offset="0.42" stop-color="rgba(247,147,30,0.1)"/>
      <stop offset="1" stop-color="rgba(247,147,30,0)"/>
    </radialGradient>
    <radialGradient id="glowB" cx="0.86" cy="0.89" r="0.48">
      <stop offset="0" stop-color="rgba(249,179,98,0.1)"/>
      <stop offset="1" stop-color="rgba(247,147,30,0)"/>
    </radialGradient>
    <radialGradient id="vig" cx="0.5" cy="0.46" r="0.75">
      <stop offset="0.45" stop-color="rgba(0,0,0,0)"/>
      <stop offset="1" stop-color="rgba(0,0,0,0.62)"/>
    </radialGradient>
    <linearGradient id="scrim" x1="0" y1="0" x2="0" y2="1">
      <stop offset="0.5" stop-color="rgba(7,7,8,0)"/>
      <stop offset="1" stop-color="rgba(7,7,8,0.78)"/>
    </linearGradient>
    <linearGradient id="mono" x1="0" y1="0" x2="0" y2="1">
      <stop offset="0" stop-color="rgba(247,147,30,0)"/>
      <stop offset="0.5" stop-color="rgba(247,147,30,0.5)"/>
      <stop offset="1" stop-color="rgba(247,147,30,0)"/>
    </linearGradient>
    <linearGradient id="floor" x1="0" y1="0" x2="0" y2="1">
      <stop offset="0" stop-color="rgba(247,147,30,0.06)"/>
      <stop offset="1" stop-color="rgba(0,0,0,0)"/>
    </linearGradient>
    <filter id="grain"><feTurbulence type="fractalNoise" baseFrequency="0.9" numOctaves="2" stitchTiles="stitch"/><feColorMatrix type="saturate" values="0"/></filter>
  </defs>
  <rect width="1280" height="720" fill="url(#base)"/>
  <rect width="1280" height="720" fill="url(#glowB)"/>
  <g transform="rotate(-26.82 640.0 360.0)"><rect x="379.93" y="-216.0" width="1.5" height="1152.0" fill="rgba(247,147,30,0.147)"/><rect x="1189.63" y="-216.0" width="2.57" height="1152.0" fill="rgba(255,255,255,0.138)"/><rect x="137.74" y="-216.0" width="1.37" height="1152.0" fill="rgba(247,147,30,0.154)"/><rect x="499.32" y="-216.0" width="0.61" height="1152.0" fill="rgba(247,147,30,0.076)"/><rect x="334.07" y="-216.0" width="2.05" height="1152.0" fill="rgba(255,255,255,0.116)"/></g>
  <rect x="0" y="442.49" width="1280" height="1" fill="rgba(255,255,255,0.1)"/><rect x="0" y="442.49" width="1280" height="277.51" fill="url(#floor)"/>
  <circle cx="719.36" cy="336.46" r="423.91" fill="none" stroke="rgba(247,147,30,0.22)" stroke-width="1.5"/><circle cx="719.36" cy="336.46" r="262.82" fill="none" stroke="rgba(255,255,255,0.06)" stroke-width="1"/>
  <rect width="1280" height="720" fill="url(#glowA)"/>
  <circle cx="101.58" cy="429.62" r="0.83" fill="rgba(247,147,30,0.467)"/><circle cx="804.32" cy="553.29" r="2.09" fill="rgba(247,147,30,0.171)"/><circle cx="848.99" cy="578.6" r="1.87" fill="rgba(255,255,255,0.279)"/><circle cx="1116.22" cy="89.62" r="2.02" fill="rgba(255,255,255,0.496)"/><circle cx="739.63" cy="617.71" r="1.31" fill="rgba(247,147,30,0.477)"/><circle cx="676.57" cy="419.44" r="0.7" fill="rgba(255,255,255,0.396)"/><circle cx="1026.06" cy="266.15" r="1.17" fill="rgba(255,255,255,0.398)"/><circle cx="942.67" cy="570.01" r="2.5" fill="rgba(255,255,255,0.488)"/><circle cx="73.1" cy="576.01" r="1.81" fill="rgba(247,147,30,0.108)"/><circle cx="1225.5" cy="366.04" r="2.07" fill="rgba(247,147,30,0.463)"/><circle cx="683.37" cy="97.58" r="2.4" fill="rgba(247,147,30,0.453)"/><circle cx="887.82" cy="628.2" r="2.23" fill="rgba(255,255,255,0.132)"/><circle cx="831.81" cy="451.26" r="2.23" fill="rgba(255,255,255,0.378)"/><circle cx="810.94" cy="422.33" r="0.99" fill="rgba(255,255,255,0.407)"/><circle cx="184.73" cy="362.55" r="1.53" fill="rgba(255,255,255,0.491)"/><circle cx="27.37" cy="248.68" r="0.6" fill="rgba(255,255,255,0.277)"/><circle cx="1179.61" cy="285.71" r="1.21" fill="rgba(247,147,30,0.087)"/><circle cx="1216.31" cy="292.39" r="1.74" fill="rgba(255,255,255,0.369)"/><circle cx="954.93" cy="289.3" r="1.12" fill="rgba(255,255,255,0.461)"/><circle cx="1261.94" cy="509.49" r="2.05" fill="rgba(247,147,30,0.092)"/><circle cx="320.26" cy="470.35" r="1.86" fill="rgba(255,255,255,0.366)"/>
  
  <rect width="1280" height="720" fill="url(#vig)"/>
  <rect width="1280" height="720" filter="url(#grain)" opacity="0.06"/>
  <path d="M34 62 V34 H62" stroke="rgba(255,255,255,0.14)" stroke-width="1" fill="none"/><path d="M1218 34 H1246 V62" stroke="rgba(255,255,255,0.14)" stroke-width="1" fill="none"/><path d="M34 658 V686 H62" stroke="rgba(255,255,255,0.14)" stroke-width="1" fill="none"/><path d="M1218 686 H1246 V658" stroke="rgba(255,255,255,0.14)" stroke-width="1" fill="none"/>
  <rect x="0.5" y="0.5" width="1279" height="719" fill="none" stroke="rgba(255,255,255,0.06)"/>
</svg>