<svg xmlns="http://www.w3.org/2000/svg" width="600" height="900" viewBox="0 0 600 900">
  <defs>
    <linearGradient id="base" x1="0" y1="0" x2="0.25" y2="1">
      <stop offset="0" stop-color="rgb(22,15,12)"/>
      <stop offset="1" stop-color="rgb(6,6,8)"/>
    </linearGradient>
    <radialGradient id="glowA" cx="0.53" cy="0.32" r="0.77">
      <stop offset="0" stop-color="rgba(255,106,0,0.3)"/>
      <stop offset="0.42" stop-color="rgba(255,106,0,0.1)"/>
      <stop offset="1" stop-color="rgba(255,106,0,0)"/>
    </radialGradient>
    <radialGradient id="glowB" cx="0.33" cy="0.69" r="0.5">
      <stop offset="0" stop-color="rgba(255,151,76,0.1)"/>
      <stop offset="1" stop-color="rgba(255,106,0,0)"/>
    </radialGradient>
    <radialGradient id="vig" cx="0.5" cy="0.46" r="0.75">
      <stop offset="0.45" stop-color="rgba(0,0,0,0)"/>
      <stop offset="1" stop-color="rgba(0,0,0,0.62)"/>
    </radialGradient>
    <linearGradient id="scrim" x1="0" y1="0" x2="0" y2="1">
      <stop offset="0.5" stop-color="rgba(7,7,8,0)"/>
      <stop offset="1" stop-color="rgba(7,7,8,0.78)"/>
    </linearGradient>
    <linearGradient id="mono" x1="0" y1="0" x2="0" y2="1">
      <stop offset="0" stop-color="rgba(255,106,0,0)"/>
      <stop offset="0.5" stop-color="rgba(255,106,0,0.5)"/>
      <stop offset="1" stop-color="rgba(255,106,0,0)"/>
    </linearGradient>
    <linearGradient id="floor" x1="0" y1="0" x2="0" y2="1">
      <stop offset="0" stop-color="rgba(255,106,0,0.06)"/>
      <stop offset="1" stop-color="rgba(0,0,0,0)"/>
    </linearGradient>
    <filter id="grain"><feTurbulence type="fractalNoise" baseFrequency="0.9" numOctaves="2" stitchTiles="stitch"/><feColorMatrix type="saturate" values="0"/></filter>
  </defs>
  <rect width="600" height="900" fill="url(#base)"/>
  <rect width="600" height="900" fill="url(#glowB)"/>
  <g transform="rotate(-16.98 300.0 450.0)"><rect x="71.26" y="-270.0" width="1.92" height="1440.0" fill="rgba(255,106,0,0.084)"/><rect x="505.42" y="-270.0" width="2.58" height="1440.0" fill="rgba(255,106,0,0.114)"/><rect x="478.61" y="-270.0" width="2.42" height="1440.0" fill="rgba(255,106,0,0.132)"/><rect x="86.65" y="-270.0" width="2.16" height="1440.0" fill="rgba(255,106,0,0.128)"/><rect x="308.31" y="-270.0" width="0.75" height="1440.0" fill="rgba(255,106,0,0.122)"/></g>
  
  <rect x="204.92" y="108.0" width="15.13" height="594.0" fill="url(#mono)"/>
  <rect width="600" height="900" fill="url(#glowA)"/>
  <circle cx="131.89" cy="581.34" r="1.51" fill="rgba(255,255,255,0.089)"/><circle cx="232.09" cy="197.36" r="1.93" fill="rgba(255,255,255,0.388)"/><circle cx="39.55" cy="371.23" r="1.54" fill="rgba(255,255,255,0.469)"/><circle cx="532.14" cy="771.32" r="1.94" fill="rgba(255,255,255,0.494)"/><circle cx="498.43" cy="856.11" r="0.66" fill="rgba(255,106,0,0.113)"/><circle cx="35.58" cy="526.92" r="2.11" fill="rgba(255,255,255,0.269)"/><circle cx="556.98" cy="793.95" r="0.73" fill="rgba(255,106,0,0.173)"/><circle cx="405.47" cy="150.52" r="1.42" fill="rgba(255,106,0,0.444)"/><circle cx="262.61" cy="890.82" r="1.42" fill="rgba(255,106,0,0.488)"/><circle cx="25.78" cy="598.89" r="1.71" fill="rgba(255,255,255,0.2)"/><circle cx="416.99" cy="362.88" r="2.01" fill="rgba(255,255,255,0.328)"/><circle cx="10.04" cy="440.65" r="0.93" fill="rgba(255,106,0,0.484)"/><circle cx="418.98" cy="814.61" r="2.28" fill="rgba(255,255,255,0.391)"/><circle cx="499.93" cy="501.47" r="0.67" fill="rgba(255,106,0,0.481)"/><circle cx="393.89" cy="240.9" r="2.5" fill="rgba(255,255,255,0.219)"/><circle cx="66.0" cy="538.13" r="0.85" fill="rgba(255,255,255,0.29)"/><circle cx="184.57" cy="662.52" r="1.78" fill="rgba(255,106,0,0.404)"/><circle cx="235.93" cy="405.74" r="2.38" fill="rgba(255,106,0,0.349)"/><circle cx="551.41" cy="30.56" r="1.86" fill="rgba(255,106,0,0.463)"/><circle cx="344.13" cy="664.97" r="1.18" fill="rgba(255,255,255,0.085)"/>
  <rect width="600" height="900" fill="url(#scrim)"/>
  <rect width="600" height="900" fill="url(#vig)"/>
  <rect width="600" height="900" filter="url(#grain)" opacity="0.06"/>
  <path d="M26 46 V26 H46" stroke="rgba(255,255,255,0.14)" stroke-width="1" fill="none"/><path d="M554 26 H574 V46" stroke="rgba(255,255,255,0.14)" stroke-width="1" fill="none"/><path d="M26 854 V874 H46" stroke="rgba(255,255,255,0.14)" stroke-width="1" fill="none"/><path d="M554 874 H574 V854" stroke="rgba(255,255,255,0.14)" stroke-width="1" fill="none"/>
  <rect x="0.5" y="0.5" width="599" height="899" fill="none" stroke="rgba(255,255,255,0.06)"/>
</svg>