<svg xmlns="http://www.w3.org/2000/svg" width="1280" height="720" viewBox="0 0 1280 720">
  <defs>
    <linearGradient id="base" x1="0" y1="0" x2="0.25" y2="1">
      <stop offset="0" stop-color="rgb(22,15,12)"/>
      <stop offset="1" stop-color="rgb(6,6,8)"/>
    </linearGradient>
    <radialGradient id="glowA" cx="0.48" cy="0.44" r="0.92">
      <stop offset="0" stop-color="rgba(255,106,0,0.3)"/>
      <stop offset="0.42" stop-color="rgba(255,106,0,0.1)"/>
      <stop offset="1" stop-color="rgba(255,106,0,0)"/>
    </radialGradient>
    <radialGradient id="glowB" cx="0.69" cy="0.72" r="0.58">
      <stop offset="0" stop-color="rgba(255,151,76,0.1)"/>
      <stop offset="1" stop-color="rgba(255,106,0,0)"/>
    </radialGradient>
    <radialGradient id="vig" cx="0.5" cy="0.46" r="0.75">
      <stop offset="0.45" stop-color="rgba(0,0,0,0)"/>
      <stop offset="1" stop-color="rgba(0,0,0,0.62)"/>
    </radialGradient>
    <linearGradient id="scrim" x1="0" y1="0" x2="0" y2="1">
      <stop offset="0.5" stop-color="rgba(7,7,8,0)"/>
      <stop offset="1" stop-color="rgba(7,7,8,0.78)"/>
    </linearGradient>
    <linearGradient id="mono" x1="0" y1="0" x2="0" y2="1">
      <stop offset="0" stop-color="rgba(255,106,0,0)"/>
      <stop offset="0.5" stop-color="rgba(255,106,0,0.5)"/>
      <stop offset="1" stop-color="rgba(255,106,0,0)"/>
    </linearGradient>
    <linearGradient id="floor" x1="0" y1="0" x2="0" y2="1">
      <stop offset="0" stop-color="rgba(255,106,0,0.06)"/>
      <stop offset="1" stop-color="rgba(0,0,0,0)"/>
    </linearGradient>
    <filter id="grain"><feTurbulence type="fractalNoise" baseFrequency="0.9" numOctaves="2" stitchTiles="stitch"/><feColorMatrix type="saturate" values="0"/></filter>
  </defs>
  <rect width="1280" height="720" fill="url(#base)"/>
  <rect width="1280" height="720" fill="url(#glowB)"/>
  <g transform="rotate(-18.82 640.0 360.0)"><rect x="841.78" y="-216.0" width="1.03" height="1152.0" fill="rgba(255,255,255,0.139)"/><rect x="785.89" y="-216.0" width="2.57" height="1152.0" fill="rgba(255,106,0,0.119)"/><rect x="961.03" y="-216.0" width="1.66" height="1152.0" fill="rgba(255,106,0,0.078)"/><rect x="763.21" y="-216.0" width="1.44" height="1152.0" fill="rgba(255,255,255,0.124)"/><rect x="167.12" y="-216.0" width="0.98" height="1152.0" fill="rgba(255,255,255,0.045)"/><rect x="972.86" y="-216.0" width="2.27" height="1152.0" fill="rgba(255,106,0,0.062)"/></g>
  <rect x="0" y="478.48" width="1280" height="1" fill="rgba(255,255,255,0.1)"/><rect x="0" y="478.48" width="1280" height="241.52" fill="url(#floor)"/>
  <circle cx="536.27" cy="232.83" r="500.67" fill="none" stroke="rgba(255,106,0,0.22)" stroke-width="1.5"/><circle cx="536.27" cy="232.83" r="310.42" fill="none" stroke="rgba(255,255,255,0.06)" stroke-width="1"/>
  <rect width="1280" height="720" fill="url(#glowA)"/>
  <circle cx="402.09" cy="49.48" r="1.07" fill="rgba(255,106,0,0.274)"/><circle cx="938.82" cy="253.37" r="1.24" fill="rgba(255,255,255,0.334)"/><circle cx="242.69" cy="572.89" r="1.5" fill="rgba(255,255,255,0.14)"/><circle cx="947.99" cy="623.56" r="1.61" fill="rgba(255,255,255,0.435)"/><circle cx="94.97" cy="579.97" r="1.16" fill="rgba(255,255,255,0.394)"/><circle cx="477.63" cy="233.49" r="2.49" fill="rgba(255,106,0,0.088)"/><circle cx="764.37" cy="565.22" r="1.43" fill="rgba(255,106,0,0.245)"/><circle cx="1168.53" cy="242.31" r="1.75" fill="rgba(255,255,255,0.096)"/><circle cx="789.87" cy="171.84" r="1.14" fill="rgba(255,255,255,0.309)"/><circle cx="728.53" cy="105.56" r="2.38" fill="rgba(255,255,255,0.406)"/><circle cx="525.24" cy="536.06" r="2.28" fill="rgba(255,255,255,0.208)"/><circle cx="664.94" cy="677.51" r="1.05" fill="rgba(255,255,255,0.109)"/><circle cx="739.69" cy="586.24" r="0.8" fill="rgba(255,106,0,0.216)"/><circle cx="1151.64" cy="109.43" r="0.82" fill="rgba(255,106,0,0.165)"/><circle cx="911.17" cy="31.83" r="1.32" fill="rgba(255,255,255,0.303)"/><circle cx="1026.19" cy="617.88" r="1.51" fill="rgba(255,106,0,0.474)"/>
  
  <rect width="1280" height="720" fill="url(#vig)"/>
  <rect width="1280" height="720" filter="url(#grain)" opacity="0.06"/>
  <path d="M34 62 V34 H62" stroke="rgba(255,255,255,0.14)" stroke-width="1" fill="none"/><path d="M1218 34 H1246 V62" stroke="rgba(255,255,255,0.14)" stroke-width="1" fill="none"/><path d="M34 658 V686 H62" stroke="rgba(255,255,255,0.14)" stroke-width="1" fill="none"/><path d="M1218 686 H1246 V658" stroke="rgba(255,255,255,0.14)" stroke-width="1" fill="none"/>
  <rect x="0.5" y="0.5" width="1279" height="719" fill="none" stroke="rgba(255,255,255,0.06)"/>
</svg>