<svg xmlns="http://www.w3.org/2000/svg" width="1280" height="720" viewBox="0 0 1280 720">
  <defs>
    <linearGradient id="base" x1="0" y1="0" x2="0.25" y2="1">
      <stop offset="0" stop-color="rgb(22,15,12)"/>
      <stop offset="1" stop-color="rgb(6,6,8)"/>
    </linearGradient>
    <radialGradient id="glowA" cx="0.29" cy="0.23" r="0.9">
      <stop offset="0" stop-color="rgba(255,106,0,0.3)"/>
      <stop offset="0.42" stop-color="rgba(255,106,0,0.1)"/>
      <stop offset="1" stop-color="rgba(255,106,0,0)"/>
    </radialGradient>
    <radialGradient id="glowB" cx="0.47" cy="0.52" r="0.58">
      <stop offset="0" stop-color="rgba(255,151,76,0.1)"/>
      <stop offset="1" stop-color="rgba(255,106,0,0)"/>
    </radialGradient>
    <radialGradient id="vig" cx="0.5" cy="0.46" r="0.75">
      <stop offset="0.45" stop-color="rgba(0,0,0,0)"/>
      <stop offset="1" stop-color="rgba(0,0,0,0.62)"/>
    </radialGradient>
    <linearGradient id="scrim" x1="0" y1="0" x2="0" y2="1">
      <stop offset="0.5" stop-color="rgba(7,7,8,0)"/>
      <stop offset="1" stop-color="rgba(7,7,8,0.78)"/>
    </linearGradient>
    <linearGradient id="mono" x1="0" y1="0" x2="0" y2="1">
      <stop offset="0" stop-color="rgba(255,106,0,0)"/>
      <stop offset="0.5" stop-color="rgba(255,106,0,0.5)"/>
      <stop offset="1" stop-color="rgba(255,106,0,0)"/>
    </linearGradient>
    <linearGradient id="floor" x1="0" y1="0" x2="0" y2="1">
      <stop offset="0" stop-color="rgba(255,106,0,0.06)"/>
      <stop offset="1" stop-color="rgba(0,0,0,0)"/>
    </linearGradient>
    <filter id="grain"><feTurbulence type="fractalNoise" baseFrequency="0.9" numOctaves="2" stitchTiles="stitch"/><feColorMatrix type="saturate" values="0"/></filter>
  </defs>
  <rect width="1280" height="720" fill="url(#base)"/>
  <rect width="1280" height="720" fill="url(#glowB)"/>
  <g transform="rotate(-18.25 640.0 360.0)"><rect x="535.1" y="-216.0" width="1.68" height="1152.0" fill="rgba(255,255,255,0.077)"/><rect x="786.32" y="-216.0" width="2.57" height="1152.0" fill="rgba(255,255,255,0.065)"/><rect x="829.0" y="-216.0" width="0.65" height="1152.0" fill="rgba(255,106,0,0.174)"/><rect x="567.47" y="-216.0" width="1.15" height="1152.0" fill="rgba(255,255,255,0.05)"/><rect x="851.41" y="-216.0" width="2.19" height="1152.0" fill="rgba(255,255,255,0.077)"/></g>
  <rect x="0" y="468.61" width="1280" height="1" fill="rgba(255,255,255,0.1)"/><rect x="0" y="468.61" width="1280" height="251.39" fill="url(#floor)"/>
  <rect x="605.37" y="86.4" width="33.67" height="475.2" fill="url(#mono)"/>
  <rect width="1280" height="720" fill="url(#glowA)"/>
  <circle cx="55.57" cy="247.97" r="2.37" fill="rgba(255,106,0,0.094)"/><circle cx="712.09" cy="532.99" r="1.87" fill="rgba(255,255,255,0.087)"/><circle cx="1182.0" cy="474.36" r="1.47" fill="rgba(255,106,0,0.193)"/><circle cx="643.46" cy="266.14" r="0.67" fill="rgba(255,106,0,0.203)"/><circle cx="579.88" cy="67.28" r="1.7" fill="rgba(255,106,0,0.321)"/><circle cx="828.14" cy="254.45" r="0.66" fill="rgba(255,255,255,0.144)"/><circle cx="314.89" cy="607.65" r="0.92" fill="rgba(255,106,0,0.168)"/><circle cx="509.39" cy="388.7" r="0.68" fill="rgba(255,255,255,0.135)"/><circle cx="1198.22" cy="600.49" r="2.34" fill="rgba(255,106,0,0.295)"/><circle cx="1157.22" cy="96.76" r="1.34" fill="rgba(255,255,255,0.404)"/><circle cx="887.55" cy="103.05" r="0.77" fill="rgba(255,255,255,0.089)"/><circle cx="959.55" cy="28.71" r="1.3" fill="rgba(255,255,255,0.259)"/><circle cx="1122.43" cy="103.11" r="1.01" fill="rgba(255,106,0,0.222)"/><circle cx="1276.68" cy="464.9" r="1.96" fill="rgba(255,106,0,0.254)"/><circle cx="1163.54" cy="491.42" r="1.45" fill="rgba(255,255,255,0.294)"/><circle cx="42.27" cy="271.12" r="1.86" fill="rgba(255,255,255,0.145)"/><circle cx="116.62" cy="499.45" r="1.47" fill="rgba(255,255,255,0.121)"/><circle cx="445.98" cy="158.99" r="1.31" fill="rgba(255,106,0,0.311)"/><circle cx="636.66" cy="217.61" r="0.86" fill="rgba(255,106,0,0.192)"/><circle cx="511.69" cy="306.13" r="1.25" fill="rgba(255,106,0,0.44)"/><circle cx="297.52" cy="150.83" r="1.43" fill="rgba(255,255,255,0.357)"/><circle cx="326.33" cy="33.46" r="1.44" fill="rgba(255,106,0,0.465)"/><circle cx="494.82" cy="107.18" r="1.01" fill="rgba(255,255,255,0.451)"/>
  
  <rect width="1280" height="720" fill="url(#vig)"/>
  <rect width="1280" height="720" filter="url(#grain)" opacity="0.06"/>
  <path d="M34 62 V34 H62" stroke="rgba(255,255,255,0.14)" stroke-width="1" fill="none"/><path d="M1218 34 H1246 V62" stroke="rgba(255,255,255,0.14)" stroke-width="1" fill="none"/><path d="M34 658 V686 H62" stroke="rgba(255,255,255,0.14)" stroke-width="1" fill="none"/><path d="M1218 686 H1246 V658" stroke="rgba(255,255,255,0.14)" stroke-width="1" fill="none"/>
  <rect x="0.5" y="0.5" width="1279" height="719" fill="none" stroke="rgba(255,255,255,0.06)"/>
</svg>