<svg xmlns="http://www.w3.org/2000/svg" width="600" height="900" viewBox="0 0 600 900">
  <defs>
    <linearGradient id="base" x1="0" y1="0" x2="0.25" y2="1">
      <stop offset="0" stop-color="rgb(22,21,16)"/>
      <stop offset="1" stop-color="rgb(6,6,8)"/>
    </linearGradient>
    <radialGradient id="glowA" cx="0.7" cy="0.44" r="0.74">
      <stop offset="0" stop-color="rgba(245,230,66,0.3)"/>
      <stop offset="0.42" stop-color="rgba(245,230,66,0.1)"/>
      <stop offset="1" stop-color="rgba(245,230,66,0)"/>
    </radialGradient>
    <radialGradient id="glowB" cx="0.38" cy="0.58" r="0.5">
      <stop offset="0" stop-color="rgba(248,238,123,0.1)"/>
      <stop offset="1" stop-color="rgba(245,230,66,0)"/>
    </radialGradient>
    <radialGradient id="vig" cx="0.5" cy="0.46" r="0.75">
      <stop offset="0.45" stop-color="rgba(0,0,0,0)"/>
      <stop offset="1" stop-color="rgba(0,0,0,0.62)"/>
    </radialGradient>
    <linearGradient id="scrim" x1="0" y1="0" x2="0" y2="1">
      <stop offset="0.5" stop-color="rgba(7,7,8,0)"/>
      <stop offset="1" stop-color="rgba(7,7,8,0.78)"/>
    </linearGradient>
    <linearGradient id="mono" x1="0" y1="0" x2="0" y2="1">
      <stop offset="0" stop-color="rgba(245,230,66,0)"/>
      <stop offset="0.5" stop-color="rgba(245,230,66,0.5)"/>
      <stop offset="1" stop-color="rgba(245,230,66,0)"/>
    </linearGradient>
    <linearGradient id="floor" x1="0" y1="0" x2="0" y2="1">
      <stop offset="0" stop-color="rgba(245,230,66,0.06)"/>
      <stop offset="1" stop-color="rgba(0,0,0,0)"/>
    </linearGradient>
    <filter id="grain"><feTurbulence type="fractalNoise" baseFrequency="0.9" numOctaves="2" stitchTiles="stitch"/><feColorMatrix type="saturate" values="0"/></filter>
  </defs>
  <rect width="600" height="900" fill="url(#base)"/>
  <rect width="600" height="900" fill="url(#glowB)"/>
  <g transform="rotate(-16.74 300.0 450.0)"><rect x="101.41" y="-270.0" width="0.8" height="1440.0" fill="rgba(245,230,66,0.126)"/><rect x="444.52" y="-270.0" width="2.17" height="1440.0" fill="rgba(255,255,255,0.096)"/><rect x="555.39" y="-270.0" width="1.85" height="1440.0" fill="rgba(255,255,255,0.093)"/><rect x="174.28" y="-270.0" width="1.49" height="1440.0" fill="rgba(255,255,255,0.124)"/><rect x="397.94" y="-270.0" width="2.41" height="1440.0" fill="rgba(255,255,255,0.048)"/><rect x="346.28" y="-270.0" width="1.53" height="1440.0" fill="rgba(245,230,66,0.175)"/><rect x="359.33" y="-270.0" width="2.02" height="1440.0" fill="rgba(245,230,66,0.053)"/><rect x="467.87" y="-270.0" width="1.01" height="1440.0" fill="rgba(255,255,255,0.1)"/></g>
  
  <circle cx="309.48" cy="252.87" r="311.66" fill="none" stroke="rgba(245,230,66,0.22)" stroke-width="1.5"/><circle cx="309.48" cy="252.87" r="193.23" fill="none" stroke="rgba(255,255,255,0.06)" stroke-width="1"/>
  <rect width="600" height="900" fill="url(#glowA)"/>
  <circle cx="338.44" cy="708.55" r="0.84" fill="rgba(255,255,255,0.133)"/><circle cx="406.02" cy="843.0" r="0.71" fill="rgba(255,255,255,0.378)"/><circle cx="328.59" cy="768.36" r="2.43" fill="rgba(245,230,66,0.221)"/><circle cx="163.87" cy="313.1" r="2.21" fill="rgba(245,230,66,0.139)"/><circle cx="397.72" cy="270.99" r="2.12" fill="rgba(255,255,255,0.208)"/><circle cx="362.69" cy="878.52" r="0.73" fill="rgba(255,255,255,0.323)"/><circle cx="547.42" cy="301.62" r="1.63" fill="rgba(255,255,255,0.137)"/><circle cx="383.42" cy="427.97" r="0.93" fill="rgba(255,255,255,0.492)"/><circle cx="397.11" cy="334.45" r="1.69" fill="rgba(245,230,66,0.259)"/><circle cx="338.48" cy="109.71" r="1.5" fill="rgba(245,230,66,0.337)"/><circle cx="497.08" cy="671.64" r="1.98" fill="rgba(255,255,255,0.298)"/><circle cx="35.58" cy="74.9" r="2.04" fill="rgba(245,230,66,0.096)"/><circle cx="0.12" cy="19.84" r="2.14" fill="rgba(245,230,66,0.466)"/><circle cx="388.5" cy="630.23" r="2.09" fill="rgba(255,255,255,0.44)"/><circle cx="209.41" cy="789.31" r="2.34" fill="rgba(255,255,255,0.212)"/><circle cx="472.66" cy="459.33" r="1.74" fill="rgba(255,255,255,0.086)"/><circle cx="139.57" cy="759.32" r="2.05" fill="rgba(245,230,66,0.244)"/><circle cx="474.21" cy="861.49" r="0.94" fill="rgba(255,255,255,0.226)"/><circle cx="28.3" cy="505.57" r="1.47" fill="rgba(245,230,66,0.317)"/><circle cx="473.41" cy="375.39" r="1.2" fill="rgba(255,255,255,0.168)"/>
  <rect width="600" height="900" fill="url(#scrim)"/>
  <rect width="600" height="900" fill="url(#vig)"/>
  <rect width="600" height="900" filter="url(#grain)" opacity="0.06"/>
  <path d="M26 46 V26 H46" stroke="rgba(255,255,255,0.14)" stroke-width="1" fill="none"/><path d="M554 26 H574 V46" stroke="rgba(255,255,255,0.14)" stroke-width="1" fill="none"/><path d="M26 854 V874 H46" stroke="rgba(255,255,255,0.14)" stroke-width="1" fill="none"/><path d="M554 874 H574 V854" stroke="rgba(255,255,255,0.14)" stroke-width="1" fill="none"/>
  <rect x="0.5" y="0.5" width="599" height="899" fill="none" stroke="rgba(255,255,255,0.06)"/>
</svg>