<svg xmlns="http://www.w3.org/2000/svg" width="1280" height="720" viewBox="0 0 1280 720">
  <defs>
    <linearGradient id="base" x1="0" y1="0" x2="0.25" y2="1">
      <stop offset="0" stop-color="rgb(22,21,16)"/>
      <stop offset="1" stop-color="rgb(6,6,8)"/>
    </linearGradient>
    <radialGradient id="glowA" cx="0.68" cy="0.3" r="0.71">
      <stop offset="0" stop-color="rgba(245,230,66,0.3)"/>
      <stop offset="0.42" stop-color="rgba(245,230,66,0.1)"/>
      <stop offset="1" stop-color="rgba(245,230,66,0)"/>
    </radialGradient>
    <radialGradient id="glowB" cx="0.42" cy="0.73" r="0.58">
      <stop offset="0" stop-color="rgba(248,238,123,0.1)"/>
      <stop offset="1" stop-color="rgba(245,230,66,0)"/>
    </radialGradient>
    <radialGradient id="vig" cx="0.5" cy="0.46" r="0.75">
      <stop offset="0.45" stop-color="rgba(0,0,0,0)"/>
      <stop offset="1" stop-color="rgba(0,0,0,0.62)"/>
    </radialGradient>
    <linearGradient id="scrim" x1="0" y1="0" x2="0" y2="1">
      <stop offset="0.5" stop-color="rgba(7,7,8,0)"/>
      <stop offset="1" stop-color="rgba(7,7,8,0.78)"/>
    </linearGradient>
    <linearGradient id="mono" x1="0" y1="0" x2="0" y2="1">
      <stop offset="0" stop-color="rgba(245,230,66,0)"/>
      <stop offset="0.5" stop-color="rgba(245,230,66,0.5)"/>
      <stop offset="1" stop-color="rgba(245,230,66,0)"/>
    </linearGradient>
    <linearGradient id="floor" x1="0" y1="0" x2="0" y2="1">
      <stop offset="0" stop-color="rgba(245,230,66,0.06)"/>
      <stop offset="1" stop-color="rgba(0,0,0,0)"/>
    </linearGradient>
    <filter id="grain"><feTurbulence type="fractalNoise" baseFrequency="0.9" numOctaves="2" stitchTiles="stitch"/><feColorMatrix type="saturate" values="0"/></filter>
  </defs>
  <rect width="1280" height="720" fill="url(#base)"/>
  <rect width="1280" height="720" fill="url(#glowB)"/>
  <g transform="rotate(-15.97 640.0 360.0)"><rect x="1063.86" y="-216.0" width="2.24" height="1152.0" fill="rgba(245,230,66,0.112)"/><rect x="414.95" y="-216.0" width="2.0" height="1152.0" fill="rgba(245,230,66,0.083)"/><rect x="1168.54" y="-216.0" width="0.83" height="1152.0" fill="rgba(255,255,255,0.131)"/><rect x="816.62" y="-216.0" width="2.32" height="1152.0" fill="rgba(245,230,66,0.143)"/><rect x="1138.89" y="-216.0" width="1.6" height="1152.0" fill="rgba(245,230,66,0.069)"/><rect x="246.18" y="-216.0" width="2.05" height="1152.0" fill="rgba(245,230,66,0.154)"/></g>
  <rect x="0" y="464.34" width="1280" height="1" fill="rgba(255,255,255,0.1)"/><rect x="0" y="464.34" width="1280" height="255.66" fill="url(#floor)"/>
  <path d="M 375.64 389.25 A 395.07 395.07 0 0 1 1165.78 389.25" fill="none" stroke="rgba(245,230,66,0.26)" stroke-width="2"/><path d="M 533.67 389.25 A 237.04 237.04 0 0 1 1007.75 389.25" fill="none" stroke="rgba(255,255,255,0.07)" stroke-width="1"/>
  <rect width="1280" height="720" fill="url(#glowA)"/>
  <circle cx="692.34" cy="150.57" r="1.91" fill="rgba(255,255,255,0.317)"/><circle cx="541.4" cy="288.33" r="1.84" fill="rgba(245,230,66,0.13)"/><circle cx="255.4" cy="384.71" r="2.4" fill="rgba(255,255,255,0.422)"/><circle cx="49.68" cy="687.68" r="2.16" fill="rgba(255,255,255,0.458)"/><circle cx="151.86" cy="676.28" r="1.2" fill="rgba(255,255,255,0.132)"/><circle cx="842.38" cy="261.99" r="0.77" fill="rgba(255,255,255,0.3)"/><circle cx="305.05" cy="584.62" r="0.92" fill="rgba(255,255,255,0.353)"/><circle cx="551.22" cy="445.66" r="1.06" fill="rgba(245,230,66,0.493)"/><circle cx="62.77" cy="676.84" r="1.53" fill="rgba(255,255,255,0.225)"/><circle cx="1214.55" cy="252.11" r="2.6" fill="rgba(255,255,255,0.121)"/><circle cx="116.29" cy="252.8" r="2.32" fill="rgba(255,255,255,0.372)"/><circle cx="672.88" cy="556.45" r="1.65" fill="rgba(255,255,255,0.464)"/><circle cx="89.69" cy="128.04" r="2.52" fill="rgba(255,255,255,0.394)"/><circle cx="478.71" cy="375.9" r="2.16" fill="rgba(255,255,255,0.455)"/>
  
  <rect width="1280" height="720" fill="url(#vig)"/>
  <rect width="1280" height="720" filter="url(#grain)" opacity="0.06"/>
  <path d="M34 62 V34 H62" stroke="rgba(255,255,255,0.14)" stroke-width="1" fill="none"/><path d="M1218 34 H1246 V62" stroke="rgba(255,255,255,0.14)" stroke-width="1" fill="none"/><path d="M34 658 V686 H62" stroke="rgba(255,255,255,0.14)" stroke-width="1" fill="none"/><path d="M1218 686 H1246 V658" stroke="rgba(255,255,255,0.14)" stroke-width="1" fill="none"/>
  <rect x="0.5" y="0.5" width="1279" height="719" fill="none" stroke="rgba(255,255,255,0.06)"/>
</svg>