<svg xmlns="http://www.w3.org/2000/svg" width="1280" height="720" viewBox="0 0 1280 720">
  <defs>
    <linearGradient id="base" x1="0" y1="0" x2="0.25" y2="1">
      <stop offset="0" stop-color="rgb(22,21,16)"/>
      <stop offset="1" stop-color="rgb(6,6,8)"/>
    </linearGradient>
    <radialGradient id="glowA" cx="0.62" cy="0.17" r="0.84">
      <stop offset="0" stop-color="rgba(245,230,66,0.3)"/>
      <stop offset="0.42" stop-color="rgba(245,230,66,0.1)"/>
      <stop offset="1" stop-color="rgba(245,230,66,0)"/>
    </radialGradient>
    <radialGradient id="glowB" cx="0.23" cy="0.59" r="0.54">
      <stop offset="0" stop-color="rgba(248,238,123,0.1)"/>
      <stop offset="1" stop-color="rgba(245,230,66,0)"/>
    </radialGradient>
    <radialGradient id="vig" cx="0.5" cy="0.46" r="0.75">
      <stop offset="0.45" stop-color="rgba(0,0,0,0)"/>
      <stop offset="1" stop-color="rgba(0,0,0,0.62)"/>
    </radialGradient>
    <linearGradient id="scrim" x1="0" y1="0" x2="0" y2="1">
      <stop offset="0.5" stop-color="rgba(7,7,8,0)"/>
      <stop offset="1" stop-color="rgba(7,7,8,0.78)"/>
    </linearGradient>
    <linearGradient id="mono" x1="0" y1="0" x2="0" y2="1">
      <stop offset="0" stop-color="rgba(245,230,66,0)"/>
      <stop offset="0.5" stop-color="rgba(245,230,66,0.5)"/>
      <stop offset="1" stop-color="rgba(245,230,66,0)"/>
    </linearGradient>
    <linearGradient id="floor" x1="0" y1="0" x2="0" y2="1">
      <stop offset="0" stop-color="rgba(245,230,66,0.06)"/>
      <stop offset="1" stop-color="rgba(0,0,0,0)"/>
    </linearGradient>
    <filter id="grain"><feTurbulence type="fractalNoise" baseFrequency="0.9" numOctaves="2" stitchTiles="stitch"/><feColorMatrix type="saturate" values="0"/></filter>
  </defs>
  <rect width="1280" height="720" fill="url(#base)"/>
  <rect width="1280" height="720" fill="url(#glowB)"/>
  <g transform="rotate(-23.19 640.0 360.0)"><rect x="569.24" y="-216.0" width="1.18" height="1152.0" fill="rgba(255,255,255,0.09)"/><rect x="338.97" y="-216.0" width="1.84" height="1152.0" fill="rgba(255,255,255,0.13)"/><rect x="677.48" y="-216.0" width="1.23" height="1152.0" fill="rgba(255,255,255,0.118)"/><rect x="990.34" y="-216.0" width="0.8" height="1152.0" fill="rgba(245,230,66,0.101)"/><rect x="1140.0" y="-216.0" width="1.62" height="1152.0" fill="rgba(255,255,255,0.105)"/><rect x="538.14" y="-216.0" width="0.79" height="1152.0" fill="rgba(255,255,255,0.139)"/><rect x="1066.56" y="-216.0" width="0.83" height="1152.0" fill="rgba(245,230,66,0.096)"/></g>
  <rect x="0" y="487.74" width="1280" height="1" fill="rgba(255,255,255,0.1)"/><rect x="0" y="487.74" width="1280" height="232.26" fill="url(#floor)"/>
  <path d="M 21.21 371.54 A 420.23 420.23 0 0 1 861.67 371.54" fill="none" stroke="rgba(245,230,66,0.26)" stroke-width="2"/><path d="M 189.3 371.54 A 252.14 252.14 0 0 1 693.57 371.54" fill="none" stroke="rgba(255,255,255,0.07)" stroke-width="1"/>
  <rect width="1280" height="720" fill="url(#glowA)"/>
  <circle cx="644.96" cy="30.08" r="1.9" fill="rgba(255,255,255,0.139)"/><circle cx="297.25" cy="351.7" r="1.34" fill="rgba(255,255,255,0.343)"/><circle cx="425.3" cy="477.23" r="1.01" fill="rgba(245,230,66,0.297)"/><circle cx="392.78" cy="549.0" r="1.21" fill="rgba(255,255,255,0.106)"/><circle cx="27.27" cy="62.82" r="2.18" fill="rgba(245,230,66,0.422)"/><circle cx="429.6" cy="309.8" r="1.4" fill="rgba(245,230,66,0.169)"/><circle cx="381.08" cy="704.32" r="0.67" fill="rgba(255,255,255,0.362)"/><circle cx="100.7" cy="535.7" r="1.42" fill="rgba(255,255,255,0.301)"/><circle cx="185.86" cy="80.15" r="1.2" fill="rgba(255,255,255,0.366)"/><circle cx="826.96" cy="356.99" r="0.89" fill="rgba(245,230,66,0.149)"/><circle cx="269.54" cy="536.27" r="1.73" fill="rgba(245,230,66,0.18)"/><circle cx="961.99" cy="315.44" r="2.43" fill="rgba(245,230,66,0.484)"/><circle cx="838.4" cy="130.0" r="2.39" fill="rgba(255,255,255,0.269)"/><circle cx="576.1" cy="518.57" r="2.3" fill="rgba(255,255,255,0.086)"/><circle cx="586.37" cy="167.06" r="1.73" fill="rgba(245,230,66,0.316)"/><circle cx="960.88" cy="596.28" r="2.57" fill="rgba(255,255,255,0.181)"/><circle cx="497.87" cy="518.74" r="0.99" fill="rgba(255,255,255,0.394)"/><circle cx="679.67" cy="314.39" r="1.0" fill="rgba(245,230,66,0.208)"/><circle cx="120.36" cy="21.87" r="1.89" fill="rgba(255,255,255,0.432)"/>
  
  <rect width="1280" height="720" fill="url(#vig)"/>
  <rect width="1280" height="720" filter="url(#grain)" opacity="0.06"/>
  <path d="M34 62 V34 H62" stroke="rgba(255,255,255,0.14)" stroke-width="1" fill="none"/><path d="M1218 34 H1246 V62" stroke="rgba(255,255,255,0.14)" stroke-width="1" fill="none"/><path d="M34 658 V686 H62" stroke="rgba(255,255,255,0.14)" stroke-width="1" fill="none"/><path d="M1218 686 H1246 V658" stroke="rgba(255,255,255,0.14)" stroke-width="1" fill="none"/>
  <rect x="0.5" y="0.5" width="1279" height="719" fill="none" stroke="rgba(255,255,255,0.06)"/>
</svg>