<svg xmlns="http://www.w3.org/2000/svg" width="1280" height="720" viewBox="0 0 1280 720">
  <defs>
    <linearGradient id="base" x1="0" y1="0" x2="0.25" y2="1">
      <stop offset="0" stop-color="rgb(10,20,25)"/>
      <stop offset="1" stop-color="rgb(6,6,8)"/>
    </linearGradient>
    <radialGradient id="glowA" cx="0.45" cy="0.25" r="0.9">
      <stop offset="0" stop-color="rgba(0,212,255,0.3)"/>
      <stop offset="0.42" stop-color="rgba(0,212,255,0.1)"/>
      <stop offset="1" stop-color="rgba(0,212,255,0)"/>
    </radialGradient>
    <radialGradient id="glowB" cx="0.15" cy="0.88" r="0.55">
      <stop offset="0" stop-color="rgba(76,225,255,0.1)"/>
      <stop offset="1" stop-color="rgba(0,212,255,0)"/>
    </radialGradient>
    <radialGradient id="vig" cx="0.5" cy="0.46" r="0.75">
      <stop offset="0.45" stop-color="rgba(0,0,0,0)"/>
      <stop offset="1" stop-color="rgba(0,0,0,0.62)"/>
    </radialGradient>
    <linearGradient id="scrim" x1="0" y1="0" x2="0" y2="1">
      <stop offset="0.5" stop-color="rgba(7,7,8,0)"/>
      <stop offset="1" stop-color="rgba(7,7,8,0.78)"/>
    </linearGradient>
    <linearGradient id="mono" x1="0" y1="0" x2="0" y2="1">
      <stop offset="0" stop-color="rgba(0,212,255,0)"/>
      <stop offset="0.5" stop-color="rgba(0,212,255,0.5)"/>
      <stop offset="1" stop-color="rgba(0,212,255,0)"/>
    </linearGradient>
    <linearGradient id="floor" x1="0" y1="0" x2="0" y2="1">
      <stop offset="0" stop-color="rgba(0,212,255,0.06)"/>
      <stop offset="1" stop-color="rgba(0,0,0,0)"/>
    </linearGradient>
    <filter id="grain"><feTurbulence type="fractalNoise" baseFrequency="0.9" numOctaves="2" stitchTiles="stitch"/><feColorMatrix type="saturate" values="0"/></filter>
  </defs>
  <rect width="1280" height="720" fill="url(#base)"/>
  <rect width="1280" height="720" fill="url(#glowB)"/>
  <g transform="rotate(-17.38 640.0 360.0)"><rect x="883.88" y="-216.0" width="2.32" height="1152.0" fill="rgba(0,212,255,0.057)"/><rect x="1182.61" y="-216.0" width="2.39" height="1152.0" fill="rgba(255,255,255,0.052)"/><rect x="347.98" y="-216.0" width="1.02" height="1152.0" fill="rgba(0,212,255,0.115)"/><rect x="1000.01" y="-216.0" width="1.42" height="1152.0" fill="rgba(255,255,255,0.047)"/><rect x="616.16" y="-216.0" width="1.03" height="1152.0" fill="rgba(255,255,255,0.122)"/></g>
  <rect x="0" y="536.66" width="1280" height="1" fill="rgba(255,255,255,0.1)"/><rect x="0" y="536.66" width="1280" height="183.34" fill="url(#floor)"/>
  <rect x="572.55" y="86.4" width="33.36" height="475.2" fill="url(#mono)"/>
  <rect width="1280" height="720" fill="url(#glowA)"/>
  <circle cx="238.0" cy="253.7" r="2.24" fill="rgba(255,255,255,0.468)"/><circle cx="252.82" cy="207.32" r="1.24" fill="rgba(0,212,255,0.356)"/><circle cx="679.72" cy="279.54" r="0.99" fill="rgba(255,255,255,0.358)"/><circle cx="1082.66" cy="352.29" r="1.9" fill="rgba(0,212,255,0.449)"/><circle cx="685.39" cy="300.34" r="0.75" fill="rgba(255,255,255,0.183)"/><circle cx="291.17" cy="503.27" r="1.22" fill="rgba(0,212,255,0.426)"/><circle cx="1015.07" cy="318.57" r="1.48" fill="rgba(255,255,255,0.26)"/><circle cx="383.58" cy="335.92" r="0.92" fill="rgba(0,212,255,0.143)"/><circle cx="752.33" cy="398.13" r="2.6" fill="rgba(255,255,255,0.471)"/><circle cx="275.51" cy="398.46" r="1.43" fill="rgba(255,255,255,0.411)"/><circle cx="844.68" cy="598.79" r="2.27" fill="rgba(0,212,255,0.446)"/><circle cx="624.99" cy="545.2" r="1.53" fill="rgba(0,212,255,0.114)"/><circle cx="1277.48" cy="163.79" r="1.31" fill="rgba(255,255,255,0.124)"/><circle cx="480.03" cy="14.72" r="1.6" fill="rgba(255,255,255,0.279)"/><circle cx="776.72" cy="218.44" r="1.31" fill="rgba(255,255,255,0.169)"/><circle cx="1192.1" cy="644.31" r="0.92" fill="rgba(0,212,255,0.208)"/><circle cx="534.02" cy="199.58" r="1.48" fill="rgba(255,255,255,0.465)"/><circle cx="206.15" cy="143.07" r="1.26" fill="rgba(0,212,255,0.12)"/><circle cx="777.51" cy="525.54" r="2.17" fill="rgba(0,212,255,0.162)"/><circle cx="1064.93" cy="369.63" r="0.67" fill="rgba(255,255,255,0.425)"/><circle cx="1022.17" cy="176.9" r="2.53" fill="rgba(255,255,255,0.481)"/><circle cx="74.94" cy="411.14" r="2.06" fill="rgba(0,212,255,0.447)"/><circle cx="983.11" cy="347.31" r="1.15" fill="rgba(255,255,255,0.354)"/><circle cx="583.12" cy="281.18" r="2.26" fill="rgba(255,255,255,0.161)"/>
  
  <rect width="1280" height="720" fill="url(#vig)"/>
  <rect width="1280" height="720" filter="url(#grain)" opacity="0.06"/>
  <path d="M34 62 V34 H62" stroke="rgba(255,255,255,0.14)" stroke-width="1" fill="none"/><path d="M1218 34 H1246 V62" stroke="rgba(255,255,255,0.14)" stroke-width="1" fill="none"/><path d="M34 658 V686 H62" stroke="rgba(255,255,255,0.14)" stroke-width="1" fill="none"/><path d="M1218 686 H1246 V658" stroke="rgba(255,255,255,0.14)" stroke-width="1" fill="none"/>
  <rect x="0.5" y="0.5" width="1279" height="719" fill="none" stroke="rgba(255,255,255,0.06)"/>
</svg>