<svg xmlns="http://www.w3.org/2000/svg" width="600" height="900" viewBox="0 0 600 900">
  <defs>
    <linearGradient id="base" x1="0" y1="0" x2="0.25" y2="1">
      <stop offset="0" stop-color="rgb(16,13,25)"/>
      <stop offset="1" stop-color="rgb(6,6,8)"/>
    </linearGradient>
    <radialGradient id="glowA" cx="0.32" cy="0.36" r="0.68">
      <stop offset="0" stop-color="rgba(139,68,255,0.3)"/>
      <stop offset="0.42" stop-color="rgba(139,68,255,0.1)"/>
      <stop offset="1" stop-color="rgba(139,68,255,0)"/>
    </radialGradient>
    <radialGradient id="glowB" cx="0.58" cy="0.83" r="0.42">
      <stop offset="0" stop-color="rgba(174,124,255,0.1)"/>
      <stop offset="1" stop-color="rgba(139,68,255,0)"/>
    </radialGradient>
    <radialGradient id="vig" cx="0.5" cy="0.46" r="0.75">
      <stop offset="0.45" stop-color="rgba(0,0,0,0)"/>
      <stop offset="1" stop-color="rgba(0,0,0,0.62)"/>
    </radialGradient>
    <linearGradient id="scrim" x1="0" y1="0" x2="0" y2="1">
      <stop offset="0.5" stop-color="rgba(7,7,8,0)"/>
      <stop offset="1" stop-color="rgba(7,7,8,0.78)"/>
    </linearGradient>
    <linearGradient id="mono" x1="0" y1="0" x2="0" y2="1">
      <stop offset="0" stop-color="rgba(139,68,255,0)"/>
      <stop offset="0.5" stop-color="rgba(139,68,255,0.5)"/>
      <stop offset="1" stop-color="rgba(139,68,255,0)"/>
    </linearGradient>
    <linearGradient id="floor" x1="0" y1="0" x2="0" y2="1">
      <stop offset="0" stop-color="rgba(139,68,255,0.06)"/>
      <stop offset="1" stop-color="rgba(0,0,0,0)"/>
    </linearGradient>
    <filter id="grain"><feTurbulence type="fractalNoise" baseFrequency="0.9" numOctaves="2" stitchTiles="stitch"/><feColorMatrix type="saturate" values="0"/></filter>
  </defs>
  <rect width="600" height="900" fill="url(#base)"/>
  <rect width="600" height="900" fill="url(#glowB)"/>
  <g transform="rotate(-17.6 300.0 450.0)"><rect x="562.48" y="-270.0" width="1.4" height="1440.0" fill="rgba(255,255,255,0.1)"/><rect x="116.77" y="-270.0" width="1.57" height="1440.0" fill="rgba(139,68,255,0.168)"/><rect x="156.26" y="-270.0" width="2.15" height="1440.0" fill="rgba(139,68,255,0.093)"/><rect x="163.1" y="-270.0" width="2.1" height="1440.0" fill="rgba(139,68,255,0.063)"/><rect x="247.73" y="-270.0" width="1.82" height="1440.0" fill="rgba(139,68,255,0.09)"/><rect x="150.48" y="-270.0" width="1.5" height="1440.0" fill="rgba(139,68,255,0.098)"/><rect x="403.03" y="-270.0" width="0.91" height="1440.0" fill="rgba(139,68,255,0.178)"/><rect x="504.84" y="-270.0" width="1.27" height="1440.0" fill="rgba(139,68,255,0.14)"/></g>
  
  <path d="M 98.51 442.45 A 295.84 295.84 0 0 1 690.18 442.45" fill="none" stroke="rgba(139,68,255,0.26)" stroke-width="2"/><path d="M 216.84 442.45 A 177.5 177.5 0 0 1 571.85 442.45" fill="none" stroke="rgba(255,255,255,0.07)" stroke-width="1"/>
  <rect width="600" height="900" fill="url(#glowA)"/>
  <circle cx="86.95" cy="394.33" r="2.39" fill="rgba(255,255,255,0.33)"/><circle cx="566.26" cy="357.14" r="1.87" fill="rgba(139,68,255,0.112)"/><circle cx="575.44" cy="418.83" r="1.48" fill="rgba(255,255,255,0.455)"/><circle cx="211.09" cy="662.35" r="0.84" fill="rgba(139,68,255,0.496)"/><circle cx="335.07" cy="467.69" r="1.71" fill="rgba(139,68,255,0.114)"/><circle cx="166.78" cy="16.4" r="1.21" fill="rgba(255,255,255,0.46)"/><circle cx="402.74" cy="797.68" r="2.23" fill="rgba(139,68,255,0.151)"/><circle cx="64.29" cy="400.82" r="1.38" fill="rgba(255,255,255,0.402)"/><circle cx="317.86" cy="670.21" r="1.18" fill="rgba(255,255,255,0.344)"/><circle cx="442.84" cy="880.42" r="2.04" fill="rgba(255,255,255,0.205)"/><circle cx="378.89" cy="595.66" r="1.27" fill="rgba(139,68,255,0.375)"/><circle cx="345.31" cy="303.98" r="2.21" fill="rgba(255,255,255,0.138)"/><circle cx="290.06" cy="471.12" r="2.26" fill="rgba(139,68,255,0.354)"/><circle cx="59.3" cy="523.43" r="1.39" fill="rgba(139,68,255,0.291)"/><circle cx="113.26" cy="50.79" r="0.66" fill="rgba(139,68,255,0.228)"/><circle cx="282.5" cy="217.05" r="0.91" fill="rgba(139,68,255,0.084)"/><circle cx="442.99" cy="354.74" r="1.18" fill="rgba(255,255,255,0.424)"/><circle cx="363.96" cy="585.47" r="2.46" fill="rgba(255,255,255,0.372)"/><circle cx="417.39" cy="550.94" r="2.03" fill="rgba(139,68,255,0.132)"/><circle cx="273.25" cy="399.64" r="1.81" fill="rgba(255,255,255,0.315)"/><circle cx="241.83" cy="549.54" r="2.2" fill="rgba(139,68,255,0.126)"/><circle cx="342.18" cy="25.38" r="1.55" fill="rgba(255,255,255,0.303)"/><circle cx="112.85" cy="713.6" r="1.06" fill="rgba(255,255,255,0.265)"/><circle cx="36.75" cy="218.62" r="1.07" fill="rgba(139,68,255,0.409)"/><circle cx="343.85" cy="181.92" r="2.34" fill="rgba(139,68,255,0.495)"/>
  <rect width="600" height="900" fill="url(#scrim)"/>
  <rect width="600" height="900" fill="url(#vig)"/>
  <rect width="600" height="900" filter="url(#grain)" opacity="0.06"/>
  <path d="M26 46 V26 H46" stroke="rgba(255,255,255,0.14)" stroke-width="1" fill="none"/><path d="M554 26 H574 V46" stroke="rgba(255,255,255,0.14)" stroke-width="1" fill="none"/><path d="M26 854 V874 H46" stroke="rgba(255,255,255,0.14)" stroke-width="1" fill="none"/><path d="M554 874 H574 V854" stroke="rgba(255,255,255,0.14)" stroke-width="1" fill="none"/>
  <rect x="0.5" y="0.5" width="599" height="899" fill="none" stroke="rgba(255,255,255,0.06)"/>
</svg>