<svg xmlns="http://www.w3.org/2000/svg" width="1280" height="720" viewBox="0 0 1280 720">
  <defs>
    <linearGradient id="base" x1="0" y1="0" x2="0.25" y2="1">
      <stop offset="0" stop-color="rgb(16,13,25)"/>
      <stop offset="1" stop-color="rgb(6,6,8)"/>
    </linearGradient>
    <radialGradient id="glowA" cx="0.27" cy="0.43" r="0.91">
      <stop offset="0" stop-color="rgba(139,68,255,0.3)"/>
      <stop offset="0.42" stop-color="rgba(139,68,255,0.1)"/>
      <stop offset="1" stop-color="rgba(139,68,255,0)"/>
    </radialGradient>
    <radialGradient id="glowB" cx="0.54" cy="0.79" r="0.47">
      <stop offset="0" stop-color="rgba(174,124,255,0.1)"/>
      <stop offset="1" stop-color="rgba(139,68,255,0)"/>
    </radialGradient>
    <radialGradient id="vig" cx="0.5" cy="0.46" r="0.75">
      <stop offset="0.45" stop-color="rgba(0,0,0,0)"/>
      <stop offset="1" stop-color="rgba(0,0,0,0.62)"/>
    </radialGradient>
    <linearGradient id="scrim" x1="0" y1="0" x2="0" y2="1">
      <stop offset="0.5" stop-color="rgba(7,7,8,0)"/>
      <stop offset="1" stop-color="rgba(7,7,8,0.78)"/>
    </linearGradient>
    <linearGradient id="mono" x1="0" y1="0" x2="0" y2="1">
      <stop offset="0" stop-color="rgba(139,68,255,0)"/>
      <stop offset="0.5" stop-color="rgba(139,68,255,0.5)"/>
      <stop offset="1" stop-color="rgba(139,68,255,0)"/>
    </linearGradient>
    <linearGradient id="floor" x1="0" y1="0" x2="0" y2="1">
      <stop offset="0" stop-color="rgba(139,68,255,0.06)"/>
      <stop offset="1" stop-color="rgba(0,0,0,0)"/>
    </linearGradient>
    <filter id="grain"><feTurbulence type="fractalNoise" baseFrequency="0.9" numOctaves="2" stitchTiles="stitch"/><feColorMatrix type="saturate" values="0"/></filter>
  </defs>
  <rect width="1280" height="720" fill="url(#base)"/>
  <rect width="1280" height="720" fill="url(#glowB)"/>
  <g transform="rotate(-23.19 640.0 360.0)"><rect x="1071.62" y="-216.0" width="1.33" height="1152.0" fill="rgba(255,255,255,0.077)"/><rect x="186.57" y="-216.0" width="0.81" height="1152.0" fill="rgba(255,255,255,0.07)"/><rect x="194.15" y="-216.0" width="0.93" height="1152.0" fill="rgba(139,68,255,0.111)"/><rect x="1187.72" y="-216.0" width="2.3" height="1152.0" fill="rgba(255,255,255,0.093)"/><rect x="149.7" y="-216.0" width="2.46" height="1152.0" fill="rgba(139,68,255,0.092)"/><rect x="940.24" y="-216.0" width="1.31" height="1152.0" fill="rgba(139,68,255,0.053)"/><rect x="968.21" y="-216.0" width="0.7" height="1152.0" fill="rgba(139,68,255,0.15)"/></g>
  <rect x="0" y="446.3" width="1280" height="1" fill="rgba(255,255,255,0.1)"/><rect x="0" y="446.3" width="1280" height="273.7" fill="url(#floor)"/>
  <path d="M 210.04 375.36 A 298.72 298.72 0 0 1 807.49 375.36" fill="none" stroke="rgba(139,68,255,0.26)" stroke-width="2"/><path d="M 329.53 375.36 A 179.23 179.23 0 0 1 688.0 375.36" fill="none" stroke="rgba(255,255,255,0.07)" stroke-width="1"/>
  <rect width="1280" height="720" fill="url(#glowA)"/>
  <circle cx="76.69" cy="439.79" r="1.4" fill="rgba(255,255,255,0.441)"/><circle cx="628.93" cy="526.47" r="2.16" fill="rgba(139,68,255,0.346)"/><circle cx="823.6" cy="425.76" r="1.27" fill="rgba(139,68,255,0.423)"/><circle cx="146.0" cy="643.24" r="1.31" fill="rgba(255,255,255,0.396)"/><circle cx="877.25" cy="307.7" r="2.02" fill="rgba(255,255,255,0.423)"/><circle cx="696.28" cy="553.05" r="2.5" fill="rgba(255,255,255,0.256)"/><circle cx="436.99" cy="287.85" r="2.45" fill="rgba(255,255,255,0.335)"/><circle cx="1077.22" cy="371.29" r="2.45" fill="rgba(255,255,255,0.339)"/><circle cx="629.65" cy="145.24" r="1.22" fill="rgba(255,255,255,0.342)"/><circle cx="1226.23" cy="27.22" r="2.29" fill="rgba(255,255,255,0.355)"/><circle cx="838.34" cy="287.38" r="1.65" fill="rgba(255,255,255,0.492)"/><circle cx="727.44" cy="665.17" r="0.77" fill="rgba(255,255,255,0.471)"/><circle cx="1032.08" cy="185.37" r="0.87" fill="rgba(255,255,255,0.305)"/><circle cx="1183.3" cy="200.71" r="1.99" fill="rgba(139,68,255,0.261)"/><circle cx="1078.91" cy="74.1" r="2.59" fill="rgba(139,68,255,0.385)"/><circle cx="750.23" cy="465.54" r="1.66" fill="rgba(255,255,255,0.313)"/><circle cx="733.66" cy="52.03" r="1.93" fill="rgba(255,255,255,0.139)"/><circle cx="47.3" cy="552.72" r="0.8" fill="rgba(255,255,255,0.277)"/><circle cx="384.77" cy="100.02" r="2.13" fill="rgba(255,255,255,0.405)"/><circle cx="470.82" cy="3.12" r="1.15" fill="rgba(139,68,255,0.151)"/><circle cx="544.3" cy="433.98" r="0.98" fill="rgba(255,255,255,0.371)"/><circle cx="415.25" cy="168.74" r="2.15" fill="rgba(255,255,255,0.099)"/><circle cx="612.63" cy="475.32" r="2.56" fill="rgba(139,68,255,0.107)"/><circle cx="857.6" cy="519.71" r="1.55" fill="rgba(255,255,255,0.305)"/>
  
  <rect width="1280" height="720" fill="url(#vig)"/>
  <rect width="1280" height="720" filter="url(#grain)" opacity="0.06"/>
  <path d="M34 62 V34 H62" stroke="rgba(255,255,255,0.14)" stroke-width="1" fill="none"/><path d="M1218 34 H1246 V62" stroke="rgba(255,255,255,0.14)" stroke-width="1" fill="none"/><path d="M34 658 V686 H62" stroke="rgba(255,255,255,0.14)" stroke-width="1" fill="none"/><path d="M1218 686 H1246 V658" stroke="rgba(255,255,255,0.14)" stroke-width="1" fill="none"/>
  <rect x="0.5" y="0.5" width="1279" height="719" fill="none" stroke="rgba(255,255,255,0.06)"/>
</svg>