<svg xmlns="http://www.w3.org/2000/svg" width="1280" height="720" viewBox="0 0 1280 720">
  <defs>
    <linearGradient id="base" x1="0" y1="0" x2="0.25" y2="1">
      <stop offset="0" stop-color="rgb(22,12,15)"/>
      <stop offset="1" stop-color="rgb(6,6,8)"/>
    </linearGradient>
    <radialGradient id="glowA" cx="0.33" cy="0.23" r="0.67">
      <stop offset="0" stop-color="rgba(255,58,58,0.3)"/>
      <stop offset="0.42" stop-color="rgba(255,58,58,0.1)"/>
      <stop offset="1" stop-color="rgba(255,58,58,0)"/>
    </radialGradient>
    <radialGradient id="glowB" cx="0.69" cy="0.87" r="0.54">
      <stop offset="0" stop-color="rgba(255,117,117,0.1)"/>
      <stop offset="1" stop-color="rgba(255,58,58,0)"/>
    </radialGradient>
    <radialGradient id="vig" cx="0.5" cy="0.46" r="0.75">
      <stop offset="0.45" stop-color="rgba(0,0,0,0)"/>
      <stop offset="1" stop-color="rgba(0,0,0,0.62)"/>
    </radialGradient>
    <linearGradient id="scrim" x1="0" y1="0" x2="0" y2="1">
      <stop offset="0.5" stop-color="rgba(7,7,8,0)"/>
      <stop offset="1" stop-color="rgba(7,7,8,0.78)"/>
    </linearGradient>
    <linearGradient id="mono" x1="0" y1="0" x2="0" y2="1">
      <stop offset="0" stop-color="rgba(255,58,58,0)"/>
      <stop offset="0.5" stop-color="rgba(255,58,58,0.5)"/>
      <stop offset="1" stop-color="rgba(255,58,58,0)"/>
    </linearGradient>
    <linearGradient id="floor" x1="0" y1="0" x2="0" y2="1">
      <stop offset="0" stop-color="rgba(255,58,58,0.06)"/>
      <stop offset="1" stop-color="rgba(0,0,0,0)"/>
    </linearGradient>
    <filter id="grain"><feTurbulence type="fractalNoise" baseFrequency="0.9" numOctaves="2" stitchTiles="stitch"/><feColorMatrix type="saturate" values="0"/></filter>
  </defs>
  <rect width="1280" height="720" fill="url(#base)"/>
  <rect width="1280" height="720" fill="url(#glowB)"/>
  <g transform="rotate(-18.51 640.0 360.0)"><rect x="581.58" y="-216.0" width="0.67" height="1152.0" fill="rgba(255,255,255,0.121)"/><rect x="237.54" y="-216.0" width="1.7" height="1152.0" fill="rgba(255,58,58,0.152)"/><rect x="734.1" y="-216.0" width="0.91" height="1152.0" fill="rgba(255,255,255,0.042)"/><rect x="910.02" y="-216.0" width="2.43" height="1152.0" fill="rgba(255,255,255,0.109)"/><rect x="1045.94" y="-216.0" width="2.16" height="1152.0" fill="rgba(255,255,255,0.1)"/></g>
  <rect x="0" y="450.44" width="1280" height="1" fill="rgba(255,255,255,0.1)"/><rect x="0" y="450.44" width="1280" height="269.56" fill="url(#floor)"/>
  <path d="M 529.23 349.54 A 296.02 296.02 0 0 1 1121.27 349.54" fill="none" stroke="rgba(255,58,58,0.26)" stroke-width="2"/><path d="M 647.64 349.54 A 177.61 177.61 0 0 1 1002.86 349.54" fill="none" stroke="rgba(255,255,255,0.07)" stroke-width="1"/>
  <rect width="1280" height="720" fill="url(#glowA)"/>
  <circle cx="1139.75" cy="534.48" r="0.62" fill="rgba(255,255,255,0.369)"/><circle cx="816.76" cy="312.45" r="1.41" fill="rgba(255,255,255,0.384)"/><circle cx="248.99" cy="628.61" r="1.93" fill="rgba(255,255,255,0.276)"/><circle cx="1004.78" cy="687.85" r="1.35" fill="rgba(255,255,255,0.462)"/><circle cx="90.16" cy="693.56" r="1.95" fill="rgba(255,255,255,0.441)"/><circle cx="944.3" cy="527.09" r="0.62" fill="rgba(255,255,255,0.145)"/><circle cx="780.31" cy="705.24" r="2.13" fill="rgba(255,255,255,0.278)"/><circle cx="517.11" cy="195.26" r="2.44" fill="rgba(255,58,58,0.307)"/><circle cx="1205.29" cy="219.84" r="1.37" fill="rgba(255,58,58,0.199)"/><circle cx="1122.23" cy="281.74" r="2.59" fill="rgba(255,255,255,0.344)"/><circle cx="330.88" cy="454.19" r="2.49" fill="rgba(255,255,255,0.308)"/><circle cx="856.84" cy="588.57" r="0.76" fill="rgba(255,58,58,0.305)"/><circle cx="1038.52" cy="650.2" r="1.4" fill="rgba(255,255,255,0.296)"/><circle cx="539.55" cy="712.9" r="2.3" fill="rgba(255,255,255,0.453)"/><circle cx="898.92" cy="169.46" r="0.68" fill="rgba(255,58,58,0.447)"/><circle cx="653.82" cy="42.79" r="1.68" fill="rgba(255,58,58,0.311)"/><circle cx="329.51" cy="514.53" r="2.06" fill="rgba(255,58,58,0.492)"/><circle cx="496.01" cy="640.48" r="2.57" fill="rgba(255,255,255,0.187)"/><circle cx="707.19" cy="479.78" r="2.38" fill="rgba(255,58,58,0.209)"/><circle cx="883.04" cy="491.91" r="1.84" fill="rgba(255,255,255,0.251)"/>
  
  <rect width="1280" height="720" fill="url(#vig)"/>
  <rect width="1280" height="720" filter="url(#grain)" opacity="0.06"/>
  <path d="M34 62 V34 H62" stroke="rgba(255,255,255,0.14)" stroke-width="1" fill="none"/><path d="M1218 34 H1246 V62" stroke="rgba(255,255,255,0.14)" stroke-width="1" fill="none"/><path d="M34 658 V686 H62" stroke="rgba(255,255,255,0.14)" stroke-width="1" fill="none"/><path d="M1218 686 H1246 V658" stroke="rgba(255,255,255,0.14)" stroke-width="1" fill="none"/>
  <rect x="0.5" y="0.5" width="1279" height="719" fill="none" stroke="rgba(255,255,255,0.06)"/>
</svg>