<svg xmlns="http://www.w3.org/2000/svg" width="1280" height="720" viewBox="0 0 1280 720">
  <defs>
    <linearGradient id="base" x1="0" y1="0" x2="0.25" y2="1">
      <stop offset="0" stop-color="rgb(16,13,25)"/>
      <stop offset="1" stop-color="rgb(6,6,8)"/>
    </linearGradient>
    <radialGradient id="glowA" cx="0.58" cy="0.29" r="0.65">
      <stop offset="0" stop-color="rgba(139,68,255,0.3)"/>
      <stop offset="0.42" stop-color="rgba(139,68,255,0.1)"/>
      <stop offset="1" stop-color="rgba(139,68,255,0)"/>
    </radialGradient>
    <radialGradient id="glowB" cx="0.85" cy="0.58" r="0.46">
      <stop offset="0" stop-color="rgba(174,124,255,0.1)"/>
      <stop offset="1" stop-color="rgba(139,68,255,0)"/>
    </radialGradient>
    <radialGradient id="vig" cx="0.5" cy="0.46" r="0.75">
      <stop offset="0.45" stop-color="rgba(0,0,0,0)"/>
      <stop offset="1" stop-color="rgba(0,0,0,0.62)"/>
    </radialGradient>
    <linearGradient id="scrim" x1="0" y1="0" x2="0" y2="1">
      <stop offset="0.5" stop-color="rgba(7,7,8,0)"/>
      <stop offset="1" stop-color="rgba(7,7,8,0.78)"/>
    </linearGradient>
    <linearGradient id="mono" x1="0" y1="0" x2="0" y2="1">
      <stop offset="0" stop-color="rgba(139,68,255,0)"/>
      <stop offset="0.5" stop-color="rgba(139,68,255,0.5)"/>
      <stop offset="1" stop-color="rgba(139,68,255,0)"/>
    </linearGradient>
    <linearGradient id="floor" x1="0" y1="0" x2="0" y2="1">
      <stop offset="0" stop-color="rgba(139,68,255,0.06)"/>
      <stop offset="1" stop-color="rgba(0,0,0,0)"/>
    </linearGradient>
    <filter id="grain"><feTurbulence type="fractalNoise" baseFrequency="0.9" numOctaves="2" stitchTiles="stitch"/><feColorMatrix type="saturate" values="0"/></filter>
  </defs>
  <rect width="1280" height="720" fill="url(#base)"/>
  <rect width="1280" height="720" fill="url(#glowB)"/>
  <g transform="rotate(-25.11 640.0 360.0)"><rect x="138.48" y="-216.0" width="0.89" height="1152.0" fill="rgba(139,68,255,0.135)"/><rect x="1135.61" y="-216.0" width="2.35" height="1152.0" fill="rgba(139,68,255,0.152)"/><rect x="255.27" y="-216.0" width="2.39" height="1152.0" fill="rgba(139,68,255,0.144)"/><rect x="672.24" y="-216.0" width="1.93" height="1152.0" fill="rgba(255,255,255,0.087)"/><rect x="697.39" y="-216.0" width="0.9" height="1152.0" fill="rgba(255,255,255,0.045)"/></g>
  <rect x="0" y="504.56" width="1280" height="1" fill="rgba(255,255,255,0.1)"/><rect x="0" y="504.56" width="1280" height="215.44" fill="url(#floor)"/>
  <rect x="748.42" y="86.4" width="27.14" height="475.2" fill="url(#mono)"/>
  <rect width="1280" height="720" fill="url(#glowA)"/>
  <circle cx="834.05" cy="659.52" r="0.62" fill="rgba(255,255,255,0.375)"/><circle cx="632.89" cy="350.56" r="1.39" fill="rgba(139,68,255,0.346)"/><circle cx="464.2" cy="358.29" r="2.1" fill="rgba(255,255,255,0.32)"/><circle cx="649.28" cy="264.28" r="0.88" fill="rgba(139,68,255,0.484)"/><circle cx="150.08" cy="352.05" r="1.46" fill="rgba(255,255,255,0.283)"/><circle cx="188.73" cy="341.19" r="1.9" fill="rgba(255,255,255,0.492)"/><circle cx="1277.41" cy="656.31" r="1.09" fill="rgba(139,68,255,0.181)"/><circle cx="316.07" cy="585.8" r="0.86" fill="rgba(255,255,255,0.385)"/><circle cx="944.95" cy="391.34" r="1.78" fill="rgba(255,255,255,0.358)"/><circle cx="1156.43" cy="157.21" r="1.22" fill="rgba(255,255,255,0.266)"/><circle cx="394.18" cy="525.29" r="2.56" fill="rgba(139,68,255,0.443)"/><circle cx="281.39" cy="680.61" r="1.08" fill="rgba(139,68,255,0.267)"/><circle cx="133.32" cy="629.49" r="0.96" fill="rgba(255,255,255,0.191)"/><circle cx="110.59" cy="625.73" r="2.32" fill="rgba(255,255,255,0.477)"/>
  
  <rect width="1280" height="720" fill="url(#vig)"/>
  <rect width="1280" height="720" filter="url(#grain)" opacity="0.06"/>
  <path d="M34 62 V34 H62" stroke="rgba(255,255,255,0.14)" stroke-width="1" fill="none"/><path d="M1218 34 H1246 V62" stroke="rgba(255,255,255,0.14)" stroke-width="1" fill="none"/><path d="M34 658 V686 H62" stroke="rgba(255,255,255,0.14)" stroke-width="1" fill="none"/><path d="M1218 686 H1246 V658" stroke="rgba(255,255,255,0.14)" stroke-width="1" fill="none"/>
  <rect x="0.5" y="0.5" width="1279" height="719" fill="none" stroke="rgba(255,255,255,0.06)"/>
</svg>