<svg xmlns="http://www.w3.org/2000/svg" width="600" height="900" viewBox="0 0 600 900">
  <defs>
    <linearGradient id="base" x1="0" y1="0" x2="0.25" y2="1">
      <stop offset="0" stop-color="rgb(22,12,15)"/>
      <stop offset="1" stop-color="rgb(6,6,8)"/>
    </linearGradient>
    <radialGradient id="glowA" cx="0.41" cy="0.41" r="0.72">
      <stop offset="0" stop-color="rgba(255,58,58,0.3)"/>
      <stop offset="0.42" stop-color="rgba(255,58,58,0.1)"/>
      <stop offset="1" stop-color="rgba(255,58,58,0)"/>
    </radialGradient>
    <radialGradient id="glowB" cx="0.18" cy="0.51" r="0.44">
      <stop offset="0" stop-color="rgba(255,117,117,0.1)"/>
      <stop offset="1" stop-color="rgba(255,58,58,0)"/>
    </radialGradient>
    <radialGradient id="vig" cx="0.5" cy="0.46" r="0.75">
      <stop offset="0.45" stop-color="rgba(0,0,0,0)"/>
      <stop offset="1" stop-color="rgba(0,0,0,0.62)"/>
    </radialGradient>
    <linearGradient id="scrim" x1="0" y1="0" x2="0" y2="1">
      <stop offset="0.5" stop-color="rgba(7,7,8,0)"/>
      <stop offset="1" stop-color="rgba(7,7,8,0.78)"/>
    </linearGradient>
    <linearGradient id="mono" x1="0" y1="0" x2="0" y2="1">
      <stop offset="0" stop-color="rgba(255,58,58,0)"/>
      <stop offset="0.5" stop-color="rgba(255,58,58,0.5)"/>
      <stop offset="1" stop-color="rgba(255,58,58,0)"/>
    </linearGradient>
    <linearGradient id="floor" x1="0" y1="0" x2="0" y2="1">
      <stop offset="0" stop-color="rgba(255,58,58,0.06)"/>
      <stop offset="1" stop-color="rgba(0,0,0,0)"/>
    </linearGradient>
    <filter id="grain"><feTurbulence type="fractalNoise" baseFrequency="0.9" numOctaves="2" stitchTiles="stitch"/><feColorMatrix type="saturate" values="0"/></filter>
  </defs>
  <rect width="600" height="900" fill="url(#base)"/>
  <rect width="600" height="900" fill="url(#glowB)"/>
  <g transform="rotate(-24.49 300.0 450.0)"><rect x="324.91" y="-270.0" width="1.11" height="1440.0" fill="rgba(255,58,58,0.148)"/><rect x="382.89" y="-270.0" width="1.46" height="1440.0" fill="rgba(255,58,58,0.116)"/><rect x="345.34" y="-270.0" width="1.73" height="1440.0" fill="rgba(255,255,255,0.12)"/><rect x="487.79" y="-270.0" width="1.57" height="1440.0" fill="rgba(255,255,255,0.043)"/><rect x="160.61" y="-270.0" width="2.39" height="1440.0" fill="rgba(255,58,58,0.124)"/><rect x="471.63" y="-270.0" width="0.67" height="1440.0" fill="rgba(255,255,255,0.119)"/><rect x="255.71" y="-270.0" width="0.67" height="1440.0" fill="rgba(255,58,58,0.144)"/><rect x="61.07" y="-270.0" width="0.74" height="1440.0" fill="rgba(255,255,255,0.125)"/></g>
  
  <rect x="202.29" y="108.0" width="8.67" height="594.0" fill="url(#mono)"/>
  <rect width="600" height="900" fill="url(#glowA)"/>
  <circle cx="337.48" cy="333.72" r="1.4" fill="rgba(255,255,255,0.485)"/><circle cx="35.94" cy="473.23" r="0.89" fill="rgba(255,58,58,0.144)"/><circle cx="15.12" cy="666.26" r="0.76" fill="rgba(255,58,58,0.371)"/><circle cx="17.42" cy="823.91" r="0.82" fill="rgba(255,58,58,0.427)"/><circle cx="173.99" cy="69.68" r="1.32" fill="rgba(255,58,58,0.285)"/><circle cx="309.3" cy="531.89" r="1.34" fill="rgba(255,58,58,0.115)"/><circle cx="244.67" cy="559.82" r="1.7" fill="rgba(255,255,255,0.25)"/><circle cx="110.11" cy="393.72" r="0.82" fill="rgba(255,255,255,0.199)"/><circle cx="395.1" cy="561.48" r="1.17" fill="rgba(255,255,255,0.356)"/><circle cx="162.84" cy="874.37" r="1.86" fill="rgba(255,58,58,0.467)"/><circle cx="278.48" cy="508.19" r="2.23" fill="rgba(255,255,255,0.323)"/><circle cx="488.63" cy="801.85" r="1.99" fill="rgba(255,58,58,0.219)"/><circle cx="414.46" cy="96.91" r="1.28" fill="rgba(255,255,255,0.491)"/><circle cx="571.51" cy="320.38" r="2.21" fill="rgba(255,255,255,0.134)"/><circle cx="501.58" cy="716.61" r="1.82" fill="rgba(255,255,255,0.382)"/><circle cx="349.63" cy="536.46" r="2.47" fill="rgba(255,58,58,0.131)"/><circle cx="157.96" cy="508.66" r="2.58" fill="rgba(255,255,255,0.249)"/>
  <rect width="600" height="900" fill="url(#scrim)"/>
  <rect width="600" height="900" fill="url(#vig)"/>
  <rect width="600" height="900" filter="url(#grain)" opacity="0.06"/>
  <path d="M26 46 V26 H46" stroke="rgba(255,255,255,0.14)" stroke-width="1" fill="none"/><path d="M554 26 H574 V46" stroke="rgba(255,255,255,0.14)" stroke-width="1" fill="none"/><path d="M26 854 V874 H46" stroke="rgba(255,255,255,0.14)" stroke-width="1" fill="none"/><path d="M554 874 H574 V854" stroke="rgba(255,255,255,0.14)" stroke-width="1" fill="none"/>
  <rect x="0.5" y="0.5" width="599" height="899" fill="none" stroke="rgba(255,255,255,0.06)"/>
</svg>