<svg xmlns="http://www.w3.org/2000/svg" width="1280" height="720" viewBox="0 0 1280 720">
  <defs>
    <linearGradient id="base" x1="0" y1="0" x2="0.25" y2="1">
      <stop offset="0" stop-color="rgb(22,12,15)"/>
      <stop offset="1" stop-color="rgb(6,6,8)"/>
    </linearGradient>
    <radialGradient id="glowA" cx="0.62" cy="0.22" r="0.64">
      <stop offset="0" stop-color="rgba(255,58,58,0.3)"/>
      <stop offset="0.42" stop-color="rgba(255,58,58,0.1)"/>
      <stop offset="1" stop-color="rgba(255,58,58,0)"/>
    </radialGradient>
    <radialGradient id="glowB" cx="0.17" cy="0.59" r="0.55">
      <stop offset="0" stop-color="rgba(255,117,117,0.1)"/>
      <stop offset="1" stop-color="rgba(255,58,58,0)"/>
    </radialGradient>
    <radialGradient id="vig" cx="0.5" cy="0.46" r="0.75">
      <stop offset="0.45" stop-color="rgba(0,0,0,0)"/>
      <stop offset="1" stop-color="rgba(0,0,0,0.62)"/>
    </radialGradient>
    <linearGradient id="scrim" x1="0" y1="0" x2="0" y2="1">
      <stop offset="0.5" stop-color="rgba(7,7,8,0)"/>
      <stop offset="1" stop-color="rgba(7,7,8,0.78)"/>
    </linearGradient>
    <linearGradient id="mono" x1="0" y1="0" x2="0" y2="1">
      <stop offset="0" stop-color="rgba(255,58,58,0)"/>
      <stop offset="0.5" stop-color="rgba(255,58,58,0.5)"/>
      <stop offset="1" stop-color="rgba(255,58,58,0)"/>
    </linearGradient>
    <linearGradient id="floor" x1="0" y1="0" x2="0" y2="1">
      <stop offset="0" stop-color="rgba(255,58,58,0.06)"/>
      <stop offset="1" stop-color="rgba(0,0,0,0)"/>
    </linearGradient>
    <filter id="grain"><feTurbulence type="fractalNoise" baseFrequency="0.9" numOctaves="2" stitchTiles="stitch"/><feColorMatrix type="saturate" values="0"/></filter>
  </defs>
  <rect width="1280" height="720" fill="url(#base)"/>
  <rect width="1280" height="720" fill="url(#glowB)"/>
  <g transform="rotate(-15.54 640.0 360.0)"><rect x="1139.25" y="-216.0" width="1.42" height="1152.0" fill="rgba(255,58,58,0.132)"/><rect x="952.57" y="-216.0" width="2.49" height="1152.0" fill="rgba(255,255,255,0.066)"/><rect x="563.7" y="-216.0" width="2.05" height="1152.0" fill="rgba(255,255,255,0.082)"/><rect x="507.7" y="-216.0" width="0.82" height="1152.0" fill="rgba(255,255,255,0.079)"/><rect x="771.15" y="-216.0" width="1.09" height="1152.0" fill="rgba(255,255,255,0.044)"/></g>
  <rect x="0" y="543.18" width="1280" height="1" fill="rgba(255,255,255,0.1)"/><rect x="0" y="543.18" width="1280" height="176.82" fill="url(#floor)"/>
  <circle cx="706.85" cy="284.28" r="588.65" fill="none" stroke="rgba(255,58,58,0.22)" stroke-width="1.5"/><circle cx="706.85" cy="284.28" r="364.97" fill="none" stroke="rgba(255,255,255,0.06)" stroke-width="1"/>
  <rect width="1280" height="720" fill="url(#glowA)"/>
  <circle cx="809.86" cy="551.79" r="1.96" fill="rgba(255,58,58,0.341)"/><circle cx="1204.93" cy="119.15" r="1.39" fill="rgba(255,255,255,0.44)"/><circle cx="207.45" cy="577.46" r="0.87" fill="rgba(255,58,58,0.108)"/><circle cx="650.48" cy="210.52" r="2.4" fill="rgba(255,58,58,0.082)"/><circle cx="424.43" cy="244.44" r="1.51" fill="rgba(255,255,255,0.4)"/><circle cx="766.37" cy="607.88" r="0.92" fill="rgba(255,58,58,0.19)"/><circle cx="1036.26" cy="707.95" r="0.83" fill="rgba(255,255,255,0.484)"/><circle cx="1168.52" cy="536.89" r="2.5" fill="rgba(255,255,255,0.338)"/><circle cx="265.88" cy="418.55" r="1.31" fill="rgba(255,255,255,0.117)"/><circle cx="777.44" cy="479.27" r="2.19" fill="rgba(255,58,58,0.116)"/><circle cx="167.82" cy="52.73" r="1.66" fill="rgba(255,255,255,0.248)"/><circle cx="877.7" cy="579.69" r="2.31" fill="rgba(255,58,58,0.095)"/><circle cx="806.17" cy="705.58" r="2.35" fill="rgba(255,255,255,0.386)"/><circle cx="238.48" cy="677.77" r="1.68" fill="rgba(255,255,255,0.086)"/><circle cx="774.43" cy="544.86" r="2.47" fill="rgba(255,58,58,0.36)"/><circle cx="1144.69" cy="643.14" r="0.92" fill="rgba(255,58,58,0.204)"/><circle cx="886.81" cy="9.06" r="2.37" fill="rgba(255,58,58,0.376)"/><circle cx="460.97" cy="17.45" r="0.83" fill="rgba(255,255,255,0.267)"/><circle cx="596.57" cy="96.35" r="1.41" fill="rgba(255,58,58,0.26)"/><circle cx="321.44" cy="53.22" r="2.29" fill="rgba(255,255,255,0.46)"/>
  
  <rect width="1280" height="720" fill="url(#vig)"/>
  <rect width="1280" height="720" filter="url(#grain)" opacity="0.06"/>
  <path d="M34 62 V34 H62" stroke="rgba(255,255,255,0.14)" stroke-width="1" fill="none"/><path d="M1218 34 H1246 V62" stroke="rgba(255,255,255,0.14)" stroke-width="1" fill="none"/><path d="M34 658 V686 H62" stroke="rgba(255,255,255,0.14)" stroke-width="1" fill="none"/><path d="M1218 686 H1246 V658" stroke="rgba(255,255,255,0.14)" stroke-width="1" fill="none"/>
  <rect x="0.5" y="0.5" width="1279" height="719" fill="none" stroke="rgba(255,255,255,0.06)"/>
</svg>