<svg xmlns="http://www.w3.org/2000/svg" width="1280" height="720" viewBox="0 0 1280 720">
  <defs>
    <linearGradient id="base" x1="0" y1="0" x2="0.25" y2="1">
      <stop offset="0" stop-color="rgb(22,12,15)"/>
      <stop offset="1" stop-color="rgb(6,6,8)"/>
    </linearGradient>
    <radialGradient id="glowA" cx="0.31" cy="0.27" r="0.86">
      <stop offset="0" stop-color="rgba(255,58,58,0.3)"/>
      <stop offset="0.42" stop-color="rgba(255,58,58,0.1)"/>
      <stop offset="1" stop-color="rgba(255,58,58,0)"/>
    </radialGradient>
    <radialGradient id="glowB" cx="0.49" cy="0.59" r="0.47">
      <stop offset="0" stop-color="rgba(255,117,117,0.1)"/>
      <stop offset="1" stop-color="rgba(255,58,58,0)"/>
    </radialGradient>
    <radialGradient id="vig" cx="0.5" cy="0.46" r="0.75">
      <stop offset="0.45" stop-color="rgba(0,0,0,0)"/>
      <stop offset="1" stop-color="rgba(0,0,0,0.62)"/>
    </radialGradient>
    <linearGradient id="scrim" x1="0" y1="0" x2="0" y2="1">
      <stop offset="0.5" stop-color="rgba(7,7,8,0)"/>
      <stop offset="1" stop-color="rgba(7,7,8,0.78)"/>
    </linearGradient>
    <linearGradient id="mono" x1="0" y1="0" x2="0" y2="1">
      <stop offset="0" stop-color="rgba(255,58,58,0)"/>
      <stop offset="0.5" stop-color="rgba(255,58,58,0.5)"/>
      <stop offset="1" stop-color="rgba(255,58,58,0)"/>
    </linearGradient>
    <linearGradient id="floor" x1="0" y1="0" x2="0" y2="1">
      <stop offset="0" stop-color="rgba(255,58,58,0.06)"/>
      <stop offset="1" stop-color="rgba(0,0,0,0)"/>
    </linearGradient>
    <filter id="grain"><feTurbulence type="fractalNoise" baseFrequency="0.9" numOctaves="2" stitchTiles="stitch"/><feColorMatrix type="saturate" values="0"/></filter>
  </defs>
  <rect width="1280" height="720" fill="url(#base)"/>
  <rect width="1280" height="720" fill="url(#glowB)"/>
  <g transform="rotate(-28.33 640.0 360.0)"><rect x="1121.52" y="-216.0" width="1.82" height="1152.0" fill="rgba(255,255,255,0.052)"/><rect x="248.71" y="-216.0" width="2.4" height="1152.0" fill="rgba(255,58,58,0.1)"/><rect x="577.15" y="-216.0" width="2.42" height="1152.0" fill="rgba(255,255,255,0.075)"/><rect x="497.57" y="-216.0" width="1.45" height="1152.0" fill="rgba(255,255,255,0.103)"/><rect x="609.05" y="-216.0" width="0.62" height="1152.0" fill="rgba(255,255,255,0.103)"/><rect x="996.88" y="-216.0" width="0.73" height="1152.0" fill="rgba(255,255,255,0.106)"/><rect x="320.5" y="-216.0" width="1.99" height="1152.0" fill="rgba(255,255,255,0.111)"/><rect x="704.85" y="-216.0" width="1.01" height="1152.0" fill="rgba(255,255,255,0.046)"/></g>
  <rect x="0" y="561.37" width="1280" height="1" fill="rgba(255,255,255,0.1)"/><rect x="0" y="561.37" width="1280" height="158.63" fill="url(#floor)"/>
  <circle cx="542.79" cy="339.6" r="431.18" fill="none" stroke="rgba(255,58,58,0.22)" stroke-width="1.5"/><circle cx="542.79" cy="339.6" r="267.33" fill="none" stroke="rgba(255,255,255,0.06)" stroke-width="1"/>
  <rect width="1280" height="720" fill="url(#glowA)"/>
  <circle cx="699.98" cy="257.81" r="2.55" fill="rgba(255,58,58,0.362)"/><circle cx="70.68" cy="192.99" r="0.67" fill="rgba(255,255,255,0.324)"/><circle cx="540.57" cy="611.02" r="1.45" fill="rgba(255,255,255,0.316)"/><circle cx="48.64" cy="599.76" r="0.66" fill="rgba(255,255,255,0.325)"/><circle cx="662.72" cy="238.83" r="1.63" fill="rgba(255,255,255,0.113)"/><circle cx="669.05" cy="668.96" r="0.84" fill="rgba(255,255,255,0.168)"/><circle cx="833.72" cy="123.71" r="0.64" fill="rgba(255,58,58,0.486)"/><circle cx="813.94" cy="606.63" r="1.56" fill="rgba(255,255,255,0.163)"/><circle cx="735.39" cy="65.62" r="0.94" fill="rgba(255,255,255,0.112)"/><circle cx="1275.14" cy="328.88" r="2.11" fill="rgba(255,255,255,0.387)"/><circle cx="861.53" cy="706.31" r="1.58" fill="rgba(255,58,58,0.214)"/><circle cx="618.39" cy="715.73" r="1.18" fill="rgba(255,58,58,0.286)"/><circle cx="942.32" cy="658.94" r="1.16" fill="rgba(255,255,255,0.14)"/><circle cx="629.53" cy="408.76" r="2.48" fill="rgba(255,58,58,0.241)"/><circle cx="737.94" cy="370.64" r="1.69" fill="rgba(255,255,255,0.382)"/><circle cx="1030.17" cy="271.28" r="0.73" fill="rgba(255,58,58,0.138)"/><circle cx="185.68" cy="325.37" r="0.95" fill="rgba(255,255,255,0.308)"/><circle cx="429.27" cy="434.38" r="0.65" fill="rgba(255,255,255,0.14)"/>
  
  <rect width="1280" height="720" fill="url(#vig)"/>
  <rect width="1280" height="720" filter="url(#grain)" opacity="0.06"/>
  <path d="M34 62 V34 H62" stroke="rgba(255,255,255,0.14)" stroke-width="1" fill="none"/><path d="M1218 34 H1246 V62" stroke="rgba(255,255,255,0.14)" stroke-width="1" fill="none"/><path d="M34 658 V686 H62" stroke="rgba(255,255,255,0.14)" stroke-width="1" fill="none"/><path d="M1218 686 H1246 V658" stroke="rgba(255,255,255,0.14)" stroke-width="1" fill="none"/>
  <rect x="0.5" y="0.5" width="1279" height="719" fill="none" stroke="rgba(255,255,255,0.06)"/>
</svg>