<svg xmlns="http://www.w3.org/2000/svg" width="600" height="900" viewBox="0 0 600 900">
  <defs>
    <linearGradient id="base" x1="0" y1="0" x2="0.25" y2="1">
      <stop offset="0" stop-color="rgb(16,13,25)"/>
      <stop offset="1" stop-color="rgb(6,6,8)"/>
    </linearGradient>
    <radialGradient id="glowA" cx="0.47" cy="0.43" r="0.85">
      <stop offset="0" stop-color="rgba(139,68,255,0.3)"/>
      <stop offset="0.42" stop-color="rgba(139,68,255,0.1)"/>
      <stop offset="1" stop-color="rgba(139,68,255,0)"/>
    </radialGradient>
    <radialGradient id="glowB" cx="0.58" cy="0.71" r="0.42">
      <stop offset="0" stop-color="rgba(174,124,255,0.1)"/>
      <stop offset="1" stop-color="rgba(139,68,255,0)"/>
    </radialGradient>
    <radialGradient id="vig" cx="0.5" cy="0.46" r="0.75">
      <stop offset="0.45" stop-color="rgba(0,0,0,0)"/>
      <stop offset="1" stop-color="rgba(0,0,0,0.62)"/>
    </radialGradient>
    <linearGradient id="scrim" x1="0" y1="0" x2="0" y2="1">
      <stop offset="0.5" stop-color="rgba(7,7,8,0)"/>
      <stop offset="1" stop-color="rgba(7,7,8,0.78)"/>
    </linearGradient>
    <linearGradient id="mono" x1="0" y1="0" x2="0" y2="1">
      <stop offset="0" stop-color="rgba(139,68,255,0)"/>
      <stop offset="0.5" stop-color="rgba(139,68,255,0.5)"/>
      <stop offset="1" stop-color="rgba(139,68,255,0)"/>
    </linearGradient>
    <linearGradient id="floor" x1="0" y1="0" x2="0" y2="1">
      <stop offset="0" stop-color="rgba(139,68,255,0.06)"/>
      <stop offset="1" stop-color="rgba(0,0,0,0)"/>
    </linearGradient>
    <filter id="grain"><feTurbulence type="fractalNoise" baseFrequency="0.9" numOctaves="2" stitchTiles="stitch"/><feColorMatrix type="saturate" values="0"/></filter>
  </defs>
  <rect width="600" height="900" fill="url(#base)"/>
  <rect width="600" height="900" fill="url(#glowB)"/>
  <g transform="rotate(-24.61 300.0 450.0)"><rect x="543.12" y="-270.0" width="2.43" height="1440.0" fill="rgba(255,255,255,0.067)"/><rect x="535.31" y="-270.0" width="1.57" height="1440.0" fill="rgba(139,68,255,0.141)"/><rect x="505.41" y="-270.0" width="2.59" height="1440.0" fill="rgba(255,255,255,0.089)"/><rect x="202.32" y="-270.0" width="1.48" height="1440.0" fill="rgba(139,68,255,0.132)"/><rect x="137.65" y="-270.0" width="0.92" height="1440.0" fill="rgba(255,255,255,0.129)"/><rect x="325.87" y="-270.0" width="1.0" height="1440.0" fill="rgba(255,255,255,0.07)"/><rect x="346.65" y="-270.0" width="2.37" height="1440.0" fill="rgba(255,255,255,0.057)"/><rect x="218.19" y="-270.0" width="1.93" height="1440.0" fill="rgba(139,68,255,0.16)"/></g>
  
  <rect x="309.13" y="108.0" width="12.11" height="594.0" fill="url(#mono)"/>
  <rect width="600" height="900" fill="url(#glowA)"/>
  <circle cx="271.39" cy="833.39" r="0.82" fill="rgba(139,68,255,0.314)"/><circle cx="573.82" cy="802.58" r="0.79" fill="rgba(139,68,255,0.225)"/><circle cx="8.39" cy="702.68" r="2.55" fill="rgba(255,255,255,0.427)"/><circle cx="339.49" cy="565.81" r="0.71" fill="rgba(255,255,255,0.125)"/><circle cx="317.27" cy="492.24" r="0.69" fill="rgba(255,255,255,0.226)"/><circle cx="139.4" cy="444.83" r="0.79" fill="rgba(139,68,255,0.184)"/><circle cx="328.75" cy="817.94" r="1.87" fill="rgba(139,68,255,0.175)"/><circle cx="170.71" cy="257.95" r="1.11" fill="rgba(139,68,255,0.408)"/><circle cx="392.5" cy="251.32" r="1.08" fill="rgba(255,255,255,0.279)"/><circle cx="312.94" cy="671.11" r="1.73" fill="rgba(255,255,255,0.324)"/><circle cx="100.85" cy="428.48" r="2.42" fill="rgba(255,255,255,0.235)"/><circle cx="265.73" cy="377.94" r="0.94" fill="rgba(255,255,255,0.467)"/><circle cx="117.33" cy="119.32" r="2.37" fill="rgba(255,255,255,0.166)"/><circle cx="428.43" cy="760.83" r="1.97" fill="rgba(255,255,255,0.191)"/><circle cx="28.98" cy="109.91" r="0.66" fill="rgba(255,255,255,0.404)"/><circle cx="469.49" cy="594.62" r="2.4" fill="rgba(255,255,255,0.457)"/><circle cx="200.36" cy="262.75" r="2.21" fill="rgba(255,255,255,0.258)"/><circle cx="2.01" cy="334.55" r="1.96" fill="rgba(255,255,255,0.41)"/><circle cx="173.4" cy="509.61" r="1.32" fill="rgba(139,68,255,0.105)"/><circle cx="27.47" cy="433.09" r="1.22" fill="rgba(139,68,255,0.323)"/><circle cx="66.1" cy="210.96" r="1.68" fill="rgba(255,255,255,0.2)"/><circle cx="410.35" cy="290.81" r="2.47" fill="rgba(255,255,255,0.257)"/><circle cx="68.22" cy="255.91" r="1.76" fill="rgba(139,68,255,0.437)"/><circle cx="177.01" cy="685.16" r="2.29" fill="rgba(139,68,255,0.26)"/><circle cx="312.91" cy="725.39" r="0.93" fill="rgba(255,255,255,0.451)"/><circle cx="214.75" cy="403.91" r="2.58" fill="rgba(255,255,255,0.477)"/><circle cx="300.38" cy="168.95" r="2.07" fill="rgba(139,68,255,0.31)"/>
  <rect width="600" height="900" fill="url(#scrim)"/>
  <rect width="600" height="900" fill="url(#vig)"/>
  <rect width="600" height="900" filter="url(#grain)" opacity="0.06"/>
  <path d="M26 46 V26 H46" stroke="rgba(255,255,255,0.14)" stroke-width="1" fill="none"/><path d="M554 26 H574 V46" stroke="rgba(255,255,255,0.14)" stroke-width="1" fill="none"/><path d="M26 854 V874 H46" stroke="rgba(255,255,255,0.14)" stroke-width="1" fill="none"/><path d="M554 874 H574 V854" stroke="rgba(255,255,255,0.14)" stroke-width="1" fill="none"/>
  <rect x="0.5" y="0.5" width="599" height="899" fill="none" stroke="rgba(255,255,255,0.06)"/>
</svg>